<?xml version="1.0" encoding="UTF-8"?>
<svg version="1.1" xmlns="http://www.w3.org/2000/svg" width="512" height="512">
<path d="M0 0 C22.55287848 -0.58578905 45.21277426 2.49814501 67.01171875 8.16015625 C67.86523926 8.3804248 68.71875977 8.60069336 69.59814453 8.82763672 C93.89287487 15.25241945 124.04183778 26.23004743 143.01171875 43.16015625 C143.01171875 44.15015625 143.01171875 45.14015625 143.01171875 46.16015625 C142.09132813 46.62164062 141.1709375 47.083125 140.22265625 47.55859375 C130.85566618 52.34755323 122.37866907 57.79761684 114.01171875 64.16015625 C113.42503418 64.60262695 112.83834961 65.04509766 112.23388672 65.50097656 C103.72580288 71.94417192 95.73639607 78.79964229 88.01171875 86.16015625 C87.233125 86.88589844 86.45453125 87.61164063 85.65234375 88.359375 C53.56467542 119.13850367 34.90679565 162.37292243 26.01171875 205.16015625 C25.8296456 206.00098503 25.64757244 206.84181381 25.45998192 207.70812225 C23.28504678 219.44964748 23.73480807 231.34569172 23.75634766 243.24023438 C23.75359447 245.77588005 23.74991258 248.31152486 23.74537659 250.84716797 C23.73729517 256.28558175 23.73492447 261.72395054 23.73732376 267.16236877 C23.74043458 275.03063347 23.72873802 282.8988269 23.71277396 290.76707357 C23.68687906 303.54327704 23.66682279 316.31948056 23.65332031 329.09570312 C23.65210476 330.24007643 23.65210476 330.24007643 23.65086465 331.4075684 C23.63962272 342.25449989 23.63435638 353.10142623 23.63147752 363.94836277 C23.63127353 364.71370384 23.63106954 365.4790449 23.63085938 366.26757812 C23.63065944 367.03198056 23.6304595 367.796383 23.63025351 368.58394915 C23.62652226 381.32531369 23.60745564 394.06660023 23.57576501 406.8079257 C23.55685354 414.65894265 23.55088682 422.5097596 23.56158219 430.36079305 C23.56864022 436.36756679 23.55514565 442.37411125 23.53396416 448.38085938 C23.52862696 450.84597766 23.53016485 453.31112162 23.53899956 455.77622986 C23.55006917 459.13505371 23.53674861 462.49291971 23.51724243 465.85168457 C23.52636709 466.83211747 23.53549175 467.81255036 23.54489291 468.82269335 C23.49596209 473.13725392 23.41011065 475.51377357 21.10466576 479.25431061 C16.83902842 483.13861647 11.61476624 482.34323133 6.13671875 482.34765625 C5.34652344 482.35990234 4.55632812 482.37214844 3.7421875 482.38476562 C-0.85876386 482.39624886 -4.75021554 482.16533062 -8.98828125 480.16015625 C-11.57066734 477.32989471 -12.36319765 475.49483817 -12.36186886 471.68451881 C-12.3688586 470.78792254 -12.37584835 469.89132627 -12.38304991 468.96756041 C-12.37547385 467.9864628 -12.3678978 467.00536519 -12.36009216 465.99453735 C-12.36582901 464.42623438 -12.36582901 464.42623438 -12.37168175 462.82624853 C-12.38099256 459.31062632 -12.36895825 455.7953953 -12.35717773 452.27978516 C-12.35964497 449.76319719 -12.3634826 447.24661024 -12.36859131 444.73002625 C-12.37694363 439.30128842 -12.37641281 433.87266385 -12.3684063 428.44392776 C-12.35716217 420.57094007 -12.36622925 412.69807237 -12.3809681 404.8250951 C-12.40475804 392.02011756 -12.41810679 379.21515482 -12.42211914 366.41015625 C-12.42236401 365.64361986 -12.42260888 364.87708347 -12.42286117 364.0873187 C-12.42540058 355.55827322 -12.42597743 347.02922887 -12.42492676 338.50018311 C-12.42459381 335.41906739 -12.42430838 332.33795167 -12.42407227 329.25683594 C-12.42400948 328.49669385 -12.42394669 327.73655176 -12.423882 326.95337506 C-12.42327436 314.21787035 -12.43827912 301.48243356 -12.46490532 288.74695718 C-12.48061086 280.90962689 -12.48307386 273.07251762 -12.4677713 265.23518537 C-12.4570725 259.20115999 -12.46713237 253.16734315 -12.48432922 247.13332558 C-12.48802143 244.67857609 -12.48504755 242.22380482 -12.47445869 239.76907539 C-12.39398146 219.75858776 -14.97852021 201.05282165 -20.36328125 181.78515625 C-20.6687085 180.68703613 -20.97413574 179.58891602 -21.28881836 178.45751953 C-22.16788003 175.35185254 -23.07045807 172.25456185 -23.98828125 169.16015625 C-24.21177246 168.39509766 -24.43526367 167.63003906 -24.66552734 166.84179688 C-28.48955045 154.16581227 -35.50687389 143.1558393 -42.32861328 131.91113281 C-43.76113301 129.53666499 -45.16387807 127.14959269 -46.546875 124.74609375 C-54.18028206 111.53653344 -63.46265922 100.15093938 -73.98828125 89.16015625 C-74.45991699 88.66128906 -74.93155273 88.16242188 -75.41748047 87.6484375 C-83.01069058 79.64638201 -91.12317291 72.71429408 -99.98828125 66.16015625 C-100.66052734 65.6595166 -101.33277344 65.15887695 -102.02539062 64.64306641 C-111.59542566 57.55884131 -121.31550131 51.44217252 -131.98828125 46.16015625 C-131.61704022 43.71858238 -131.34454834 42.47622177 -129.46728516 40.81079102 C-128.80647949 40.41174561 -128.14567383 40.0127002 -127.46484375 39.6015625 C-126.70526367 39.13975586 -125.94568359 38.67794922 -125.16308594 38.20214844 C-124.32165039 37.71391602 -123.48021484 37.22568359 -122.61328125 36.72265625 C-121.7305957 36.20477539 -120.84791016 35.68689453 -119.93847656 35.15332031 C-87.63717169 16.56977056 -53.97116876 5.26595513 -16.98828125 1.16015625 C-15.79847656 1.02738281 -14.60867187 0.89460938 -13.3828125 0.7578125 C-8.92496329 0.34536257 -4.47248496 0.17960028 0 0 Z " fill="#1CA1C7" transform="translate(250.98828125,16.83984375)"/>
<path d="M0 0 C50.34607071 26.28197965 89.09550626 64.52642385 106.98388672 119.24487305 C110.82367789 131.53033954 113.08776674 143.77383401 114.09220886 156.60514832 C114.17756462 157.69323262 114.26292038 158.78131693 114.35086268 159.90237349 C115.18761391 171.35669588 115.28935951 182.77555318 115.2746582 194.25512695 C115.27902118 196.55771548 115.2842095 198.86030256 115.29014587 201.16288757 C115.30335777 207.32678517 115.30413618 213.49062084 115.30158257 219.65452981 C115.30050343 224.81743895 115.30541863 229.98033602 115.310188 235.14324254 C115.32184198 248.00098854 115.32109318 260.8586953 115.31463119 273.71644291 C115.30943494 284.87341051 115.32080226 296.03029154 115.33972941 307.18724201 C115.35908734 318.68707026 115.36707743 330.18684719 115.36360615 341.68669289 C115.36179264 348.12628135 115.36443909 354.56578992 115.37832069 361.00536537 C115.39084783 367.03929176 115.38900373 373.07304249 115.37590981 379.10696602 C115.37353561 381.32257394 115.37630868 383.53819407 115.38453293 385.75378799 C115.39492784 388.77062039 115.38695913 391.78685485 115.3742218 394.80366516 C115.38159609 395.6854427 115.38897037 396.56722025 115.39656812 397.47571832 C115.34392164 403.37598447 115.34392164 403.37598447 113.59764385 406.54445171 C110.99765473 408.91319598 108.84505332 408.46221249 105.47851562 408.30615234 C101.38676648 407.80072943 97.63529709 406.65918348 93.75 405.3125 C92.58597656 404.94608398 92.58597656 404.94608398 91.3984375 404.57226562 C85.93411384 402.7306207 81.69705871 400.39411742 79 395 C78.89791185 392.85244915 78.86212288 390.70166173 78.85523987 388.55169678 C78.85171302 387.88199616 78.84818618 387.21229554 78.84455246 386.52230096 C78.83383658 384.26713906 78.83017931 382.01201937 78.82641602 379.75683594 C78.82011238 378.14380718 78.81334679 376.53078016 78.80615234 374.91775513 C78.79146072 371.43648389 78.77974418 367.95521947 78.77020454 364.47393036 C78.75475398 358.95868283 78.73080002 353.44349275 78.70530701 347.92828369 C78.63411515 332.2419397 78.57452887 316.55556167 78.52319336 300.86914062 C78.49478361 292.21117837 78.45933715 283.55327215 78.41653961 274.89536881 C78.38991884 269.42490953 78.37191981 263.95451366 78.36050236 258.48400259 C78.35129934 255.05914817 78.33390087 251.63436974 78.31432343 248.20956039 C78.30692322 246.63514542 78.30277148 245.06071084 78.30232811 243.48627853 C78.28553342 210.45494021 66.47727576 178.66998088 47 152 C46.60893066 151.45005371 46.21786133 150.90010742 45.81494141 150.33349609 C23.31257875 118.79454106 -12.9790542 101.53443632 -50 94 C-51.10988281 93.77183594 -52.21976563 93.54367188 -53.36328125 93.30859375 C-55.57336 92.86157641 -57.78625023 92.4284677 -60 92 C-57.13182917 62.93586894 -29.83037409 30.07485815 -10 10 C-9.50886719 9.50048828 -9.01773438 9.00097656 -8.51171875 8.48632812 C-5.69877912 5.63256747 -2.86174946 2.80476772 0 0 Z " fill="#1CA1C7" transform="translate(91,83)"/>
<path d="M0 0 C9.83033845 8.15708936 17.97212902 17.130045 25.67871094 27.26855469 C26.90004315 28.86901441 28.14061071 30.45474612 29.3828125 32.0390625 C40.46406844 46.36361287 61 73.36599595 61 92 C60.1020874 92.17740723 60.1020874 92.17740723 59.18603516 92.35839844 C18.45122255 100.45015405 -22.1879623 116.15816628 -46.69921875 152.01074219 C-65.13858162 180.20967775 -77.55018588 210.21989214 -77.36889648 244.14892578 C-77.37137294 245.78537751 -77.37521983 247.42182763 -77.38031006 249.05827332 C-77.38855891 252.54262775 -77.38791808 256.02681823 -77.38012505 259.51117325 C-77.36841869 265.02574304 -77.380803 270.5401072 -77.39674377 276.05465698 C-77.43271458 289.73489197 -77.43916237 303.41511986 -77.43664551 317.09539795 C-77.43493321 327.76509586 -77.44204815 338.43462275 -77.47662407 349.10427272 C-77.49338075 354.58267785 -77.49165845 360.06066425 -77.47580135 365.53906751 C-77.47000005 368.94285391 -77.48075013 372.34644189 -77.49604797 375.75019264 C-77.49976904 377.32434685 -77.49668103 378.89853459 -77.48617744 380.47265816 C-77.39319333 395.4041435 -77.39319333 395.4041435 -82 401 C-84.953125 402.70703125 -84.953125 402.70703125 -88.25 403.8125 C-89.40371094 404.204375 -90.55742187 404.59625 -91.74609375 405 C-92.81988281 405.33 -93.89367187 405.66 -95 406 C-95.77472656 406.2475 -96.54945313 406.495 -97.34765625 406.75 C-102.01128516 408.08511444 -106.20265864 408.40655435 -111 408 C-113.01148117 406.50295802 -113.87487456 405.6198143 -114.37489682 403.1429323 C-114.37484181 402.44071129 -114.37478679 401.73849028 -114.37473011 401.01498985 C-114.38193665 400.20235282 -114.3891432 399.38971579 -114.39656812 398.5524534 C-114.38919383 397.65998112 -114.38181955 396.76750884 -114.3742218 395.84799194 C-114.37819621 394.89934946 -114.38217061 393.95070697 -114.38626546 392.97331774 C-114.3959254 389.77942477 -114.38404703 386.58597072 -114.37231445 383.39208984 C-114.37474155 381.10711501 -114.37846007 378.82214124 -114.38337708 376.53717041 C-114.39281254 370.3126712 -114.38333205 364.08832857 -114.37004495 357.86384153 C-114.35873204 351.33587335 -114.36283861 344.80791291 -114.36479187 338.27993774 C-114.36621961 327.29223163 -114.35464668 316.30458374 -114.33618164 305.31689453 C-114.31727234 294.0616672 -114.31006834 282.80651162 -114.31567383 271.55126953 C-114.32242405 257.957519 -114.31901502 244.36381627 -114.30657005 230.77006912 C-114.30196201 225.59930453 -114.30103376 220.42855949 -114.3031559 215.25779343 C-114.30506442 209.13300962 -114.29674181 203.00831583 -114.2810955 196.88355255 C-114.27691332 194.65582527 -114.27596017 192.42808875 -114.27878571 190.20035934 C-114.29122173 178.62353007 -113.99811807 167.1375289 -113.09220886 155.59268188 C-113.01270251 154.57777188 -112.93319615 153.56286187 -112.85128051 152.51719701 C-109.33187117 111.57667665 -90.13396627 74.31606569 -62 45 C-61.21625 44.175 -60.4325 43.35 -59.625 42.5 C-43.11001214 25.51315534 -21.28941755 10.31794377 0 0 Z " fill="#1CA1C7" transform="translate(421,83)"/>
<path d="M0 0 C24.89440223 -1.63539869 53.49717583 7.69680667 72.546875 23.796875 C98.02354202 46.67719379 115.0164794 76.55139092 117 111 C117.1691778 115.49956174 117.25194865 119.99783065 117.31640625 124.5 C117.33723267 125.77933411 117.35805908 127.05866821 117.3795166 128.37677002 C117.43517687 131.85932075 117.48476279 135.34193178 117.53242874 138.82460022 C117.56268994 141.01374089 117.5945257 143.20285413 117.62667847 145.39196777 C118.16663944 182.59304086 118.09999599 219.79604815 118 257 C117.34 257.33 116.68 257.66 116 258 C88.10144114 246.58225647 60.62251512 218.53055209 43.21923828 194.66796875 C41.98696102 192.98216213 40.72793445 191.31905295 39.46484375 189.65625 C32.69608415 180.61473014 27.27176322 170.97084647 22 161 C21.64695801 160.34837891 21.29391602 159.69675781 20.93017578 159.02539062 C4.86801847 129.34615308 -5.00587148 94.09392991 -5.203125 60.21484375 C-5.21000336 59.40377167 -5.21688171 58.59269958 -5.22396851 57.75704956 C-5.24105001 55.1504868 -5.24742349 52.54411577 -5.25 49.9375 C-5.25167175 49.04993011 -5.25334351 48.16236023 -5.25506592 47.24789429 C-5.2591516 11.04421837 -5.2591516 11.04421837 0 0 Z " fill="#1888C6" transform="translate(21,209)"/>
<path d="M0 0 C13.77502227 61.43659932 0.72728969 126.05415664 -32.53125 179.0859375 C-41.90912895 193.66716997 -52.98191208 206.54778488 -65 219 C-65.89976562 219.94101562 -66.79953125 220.88203125 -67.7265625 221.8515625 C-80.47341481 234.92214439 -99.22586942 252.07528981 -117 258 C-118.82966678 256.17033322 -118.12646447 253.61731164 -118.1355381 251.18197918 C-118.13351072 250.34301003 -118.13148335 249.50404089 -118.12939453 248.63964844 C-118.13111853 247.75807225 -118.13284252 246.87649607 -118.13461876 245.96820545 C-118.13898873 243.0152436 -118.136003 240.06233769 -118.1328125 237.109375 C-118.13391096 235.03368612 -118.13534099 232.9579974 -118.13708496 230.88230896 C-118.13999785 225.32037131 -118.13568255 219.75846302 -118.12897491 214.19652939 C-118.12501629 210.76412711 -118.12249598 207.33172633 -118.12030029 203.89932251 C-118.10117968 177.9943356 -118.07307376 152.0892129 -117.625 126.1875 C-117.60971252 125.15500122 -117.59442505 124.12250244 -117.57867432 123.05871582 C-117.14391853 95.2422603 -117.14391853 95.2422603 -112.375 82.625 C-111.9891272 81.5719165 -111.9891272 81.5719165 -111.59545898 80.49755859 C-100.98662442 52.43102908 -81.40307761 23.97813432 -53.34765625 11.296875 C-49.61958726 9.70474022 -45.83206496 8.31921976 -42 7 C-41.33145996 6.76796875 -40.66291992 6.5359375 -39.97412109 6.296875 C-26.56203939 1.71045903 -14.2253758 -0.3787822 0 0 Z " fill="#1888C6" transform="translate(492,209)"/>
<path d="M0 0 C22.55287848 -0.58578905 45.21277426 2.49814501 67.01171875 8.16015625 C67.86523926 8.3804248 68.71875977 8.60069336 69.59814453 8.82763672 C93.89287487 15.25241945 124.04183778 26.23004743 143.01171875 43.16015625 C143.01171875 44.15015625 143.01171875 45.14015625 143.01171875 46.16015625 C141.44921875 46.91015625 141.44921875 46.91015625 139.01171875 47.16015625 C136.50885466 46.02931188 134.34164153 44.63876109 132.01171875 43.16015625 C132.01171875 42.50015625 132.01171875 41.84015625 132.01171875 41.16015625 C131.28984375 41.03640625 130.56796875 40.91265625 129.82421875 40.78515625 C127.05449981 40.16966315 124.61468335 39.27571251 122.01171875 38.16015625 C122.01171875 37.50015625 122.01171875 36.84015625 122.01171875 36.16015625 C119.53127342 35.16090376 117.04903472 34.17423105 114.546875 33.23046875 C109.56650631 31.32644154 105.43347508 29.17499011 101.01171875 26.16015625 C96.46722795 24.38187724 91.74880638 23.3035912 87.01171875 22.16015625 C87.01171875 21.50015625 87.01171875 20.84015625 87.01171875 20.16015625 C86.29886719 20.05058594 85.58601562 19.94101562 84.8515625 19.828125 C76.06649929 18.37380094 76.06649929 18.37380094 72.26171875 16.59765625 C68.79951989 15.06629906 65.75008586 14.6087603 62.01171875 14.16015625 C61.68171875 13.83015625 61.35171875 13.50015625 61.01171875 13.16015625 C59.2325229 12.80209802 57.44194497 12.50027922 55.6484375 12.22265625 C53.97491211 11.96355469 53.97491211 11.96355469 52.26757812 11.69921875 C51.09001953 11.52132813 49.91246094 11.3434375 48.69921875 11.16015625 C47.56419922 10.98226563 46.42917969 10.804375 45.25976562 10.62109375 C30.93950877 8.43180177 16.88847064 7.94637374 2.42260742 7.91992188 C-0.78297827 7.91021019 -3.98792317 7.87910377 -7.19335938 7.84765625 C-18.53825867 7.78915868 -28.98795407 8.2640066 -39.98828125 11.16015625 C-40.76196045 11.35295166 -41.53563965 11.54574707 -42.33276367 11.74438477 C-44.21809829 12.21566064 -46.1031969 12.68788032 -47.98828125 13.16015625 C-49.5408265 13.44675408 -51.09573465 13.72074048 -52.65234375 13.984375 C-62.25074423 15.62907441 -70.41583039 17.71912465 -78.9453125 22.4765625 C-83.66103045 25.08564393 -88.27314077 27.23352443 -93.61328125 28.09765625 C-96.68171725 28.71442731 -97.8406185 29.03643881 -100.30078125 31.09765625 C-104.60612579 34.40175787 -109.74677874 35.05668204 -114.98828125 36.16015625 C-114.98828125 36.82015625 -114.98828125 37.48015625 -114.98828125 38.16015625 C-116.54947547 38.95439486 -118.11230089 39.74542748 -119.67578125 40.53515625 C-120.54589844 40.97601563 -121.41601562 41.416875 -122.3125 41.87109375 C-124.83600924 43.08679893 -127.37565657 44.15276583 -129.98828125 45.16015625 C-129.38768802 41.53511304 -129.07849021 41.22855519 -125.90234375 38.8203125 C-124.48339962 37.9369318 -123.0525539 37.07251396 -121.61328125 36.22265625 C-120.82453613 35.75174561 -120.03579102 35.28083496 -119.22314453 34.7956543 C-87.34161672 16.20062717 -53.57526269 5.22200208 -16.98828125 1.16015625 C-15.79847656 1.02738281 -14.60867187 0.89460938 -13.3828125 0.7578125 C-8.92496329 0.34536257 -4.47248496 0.17960028 0 0 Z " fill="#1A7496" transform="translate(250.98828125,16.83984375)"/>
<path d="M0 0 C9.83033845 8.15708936 17.97212902 17.130045 25.67871094 27.26855469 C26.90004315 28.86901441 28.14061071 30.45474612 29.3828125 32.0390625 C40.12383569 45.92379979 51.53325108 63.2291262 57 80 C56.625 82.8125 56.625 82.8125 56 85 C55.01 84.67 54.02 84.34 53 84 C51.7890625 81.0859375 51.7890625 81.0859375 50.625 77.375 C49.27948441 73.27130657 47.99624042 69.50623771 45.3125 66.0625 C42.69562406 62.59690754 41.93735025 60.17546929 41 56 C40.34 56 39.68 56 39 56 C36 50.25 36 50.25 36 48 C35.34 48 34.68 48 34 48 C33.9175 47.38125 33.835 46.7625 33.75 46.125 C33.21868674 43.82530563 33.21868674 43.82530563 31.0625 43.0625 C29 42 29 42 27.8125 39.5625 C27.4103125 38.2940625 27.4103125 38.2940625 27 37 C26.67 36.01 26.34 35.02 26 34 C25.01 33.67 24.02 33.34 23 33 C21.51176454 30.83662814 20.15133429 28.6896095 18.8125 26.4375 C13.29265399 17.5448533 7.78187303 11.1922313 -2 7 C-2 7.66 -2 8.32 -2 9 C-3.051875 9.4125 -4.10375 9.825 -5.1875 10.25 C-8.60467119 11.70075075 -11.12043273 13.65087934 -14 16 C-15.66392045 16.67349161 -17.33032028 17.3409159 -19 18 C-19.53625 18.53625 -20.0725 19.0725 -20.625 19.625 C-21.07875 20.07875 -21.5325 20.5325 -22 21 C-22.99 21 -23.98 21 -25 21 C-25.495 22.485 -25.495 22.485 -26 24 C-28.44140625 25.359375 -28.44140625 25.359375 -31.5625 26.75 C-36.62754735 29.15272806 -40.47315564 31.77763272 -44.4765625 35.6796875 C-46 37 -46 37 -48 37 C-48 37.99 -48 38.98 -48 40 C-48.78375 40.2475 -49.5675 40.495 -50.375 40.75 C-53.50530909 42.24062337 -53.54003879 42.99419751 -55 46 C-60.02849003 51 -60.02849003 51 -63 51 C-63.2475 51.7425 -63.495 52.485 -63.75 53.25 C-65.10465039 56.23023087 -66.5101541 57.89919252 -69 60 C-69.66 60 -70.32 60 -71 60 C-71.20625 60.825 -71.4125 61.65 -71.625 62.5 C-73.35020787 66.89143822 -75.77469061 70.54681549 -79 74 C-79.66 74 -80.32 74 -81 74 C-81.37125 75.299375 -81.37125 75.299375 -81.75 76.625 C-83.25173905 80.67969543 -84.9784662 84.9892331 -89 87 C-89.86865849 88.78878353 -89.86865849 88.78878353 -90.5859375 90.97265625 C-90.87726563 91.79056641 -91.16859375 92.60847656 -91.46875 93.45117188 C-91.7678125 94.31291016 -92.066875 95.17464844 -92.375 96.0625 C-94.0761738 100.93643821 -95.76242707 105.69078097 -98.1484375 110.27734375 C-99.72988457 113.32497988 -100.68129988 116.08779931 -101.25 119.5 C-101.39953125 120.3559375 -101.5490625 121.211875 -101.703125 122.09375 C-101.80109375 122.7228125 -101.8990625 123.351875 -102 124 C-103.485 124.495 -103.485 124.495 -105 125 C-105.04898437 125.6290625 -105.09796875 126.258125 -105.1484375 126.90625 C-105.57196664 131.75492848 -106.23825603 136.28270296 -107.5234375 140.97265625 C-108.37572337 144.59836419 -108.67413549 148.29543503 -109 152 C-109.99 152 -110.98 152 -112 152 C-112.17324939 146.12284764 -111.62705021 140.86161184 -110.375 135.125 C-110.19606201 134.30056396 -110.01712402 133.47612793 -109.83276367 132.62670898 C-102.20998043 98.91092331 -85.77025296 69.76900309 -62 45 C-61.21625 44.175 -60.4325 43.35 -59.625 42.5 C-43.11001214 25.51315534 -21.28941755 10.31794377 0 0 Z " fill="#1B88A6" transform="translate(421,83)"/>
<path d="M0 0 C31.04631678 16.20699797 68.10843846 40.17217023 85 72 C85.18359375 74.7890625 85.18359375 74.7890625 85 77 C80.42158813 73.37328048 77.16801862 69.96322917 74 65 C72.35353315 63.31337542 70.68816933 61.64488294 69 60 C66 56.37931034 66 56.37931034 66 54 C65.360625 53.731875 64.72125 53.46375 64.0625 53.1875 C62 52 62 52 61 49 C58.99983534 47.79117904 58.99983534 47.79117904 57 47 C57 46.34 57 45.68 57 45 C56.4225 44.71125 55.845 44.4225 55.25 44.125 C53.16666667 43.08333333 51.08333333 42.04166667 49 41 C49 40.34 49 39.68 49 39 C48.34 39 47.68 39 47 39 C45.66666667 37.66666667 44.33333333 36.33333333 43 35 C42.319375 34.690625 41.63875 34.38125 40.9375 34.0625 C39 33 39 33 37.6875 30.5625 C35.32554182 26.97582277 32.99421854 26.43188967 29 25 C29 24.34 29 23.68 29 23 C28.27296875 22.72542969 27.5459375 22.45085937 26.796875 22.16796875 C20.32387239 19.46485732 14.62234473 15.59892897 9.25 11.125 C6.28743103 8.73073911 5.32999103 8.04052521 1.4375 7.5625 C0.633125 7.706875 -0.17125 7.85125 -1 8 C-1 8.66 -1 9.32 -1 10 C-2.3921875 10.8971875 -2.3921875 10.8971875 -3.8125 11.8125 C-7.16559209 14.11364163 -8.00542646 15.5693335 -10 19 C-12.19793013 21.47654099 -14.45807472 23.87458296 -17 26 C-17.66 26 -18.32 26 -19 26 C-19.10441406 26.57234375 -19.20882812 27.1446875 -19.31640625 27.734375 C-20.11159499 30.36985768 -21.27901491 32.06031308 -22.9375 34.25 C-23.46214844 34.95640625 -23.98679688 35.6628125 -24.52734375 36.390625 C-25.01332031 36.92171875 -25.49929687 37.4528125 -26 38 C-26.66 38 -27.32 38 -28 38 C-28.268125 38.7425 -28.53625 39.485 -28.8125 40.25 C-29.95276751 42.89061949 -31.09380306 44.85552844 -33 47 C-33.66 47 -34.32 47 -35 47 C-35 47.66 -35 48.32 -35 49 C-35.66 49 -36.32 49 -37 49 C-37.66 50.98 -38.32 52.96 -39 55 C-39.66 55 -40.32 55 -41 55 C-41.1546875 56.85625 -41.1546875 56.85625 -41.3125 58.75 C-41.74774392 62.25682248 -42.37051757 64.47569687 -45 67 C-45.66 67 -46.32 67 -47 67 C-47.268125 68.03125 -47.53625 69.0625 -47.8125 70.125 C-49.37975078 75.53913906 -51.047729 79.92617662 -56 83 C-55.44718915 78.00934647 -53.79121568 74.02967403 -51.5 69.625 C-51.14470215 68.93164551 -50.7894043 68.23829102 -50.42333984 67.52392578 C-49.29567193 65.3419302 -48.15122343 63.16965094 -47 61 C-46.6380957 60.31486328 -46.27619141 59.62972656 -45.90332031 58.92382812 C-34.00874418 36.59334346 -17.98194319 17.67944321 0 0 Z " fill="#1A799C" transform="translate(91,83)"/>
<path d="M0 0 C1.32979889 -0.00956978 1.32979889 -0.00956978 2.6864624 -0.01933289 C3.6487677 -0.02044571 4.611073 -0.02155853 5.60253906 -0.02270508 C6.60915588 -0.02603348 7.61577271 -0.02936188 8.65289307 -0.03279114 C10.79821314 -0.03786401 12.94354113 -0.04019935 15.08886719 -0.04003906 C18.28627755 -0.04218146 21.4833169 -0.06020735 24.68066406 -0.0793457 C51.16236933 -0.1513529 77.13266938 1.33404176 101.61816406 12.14526367 C101.61816406 12.47526367 101.61816406 12.80526367 101.61816406 13.14526367 C96.47510374 13.52158516 93.2869555 12.19297921 88.61816406 10.14526367 C86.29121443 9.76994921 83.95839721 9.42609165 81.61816406 9.14526367 C81.28816406 8.81526367 80.95816406 8.48526367 80.61816406 8.14526367 C78.83896822 7.78720544 77.04839028 7.48538664 75.25488281 7.20776367 C74.13919922 7.0350293 73.02351562 6.86229492 71.87402344 6.68432617 C70.69646484 6.50643555 69.51890625 6.32854492 68.30566406 6.14526367 C67.17064453 5.96737305 66.035625 5.78948242 64.86621094 5.60620117 C50.54595409 3.41690919 36.49491595 2.93148116 22.02905273 2.9050293 C18.82346704 2.89531761 15.61852215 2.8642112 12.41308594 2.83276367 C1.06818664 2.77426611 -9.38150876 3.24911403 -20.38183594 6.14526367 C-21.54235474 6.43445679 -21.54235474 6.43445679 -22.72631836 6.72949219 C-24.61165297 7.20076806 -26.49675159 7.67298774 -28.38183594 8.14526367 C-29.93438118 8.4318615 -31.48928933 8.7058479 -33.04589844 8.96948242 C-42.64429891 10.61418183 -50.80938507 12.70423207 -59.33886719 17.46166992 C-64.05458514 20.07075136 -68.66669545 22.21863185 -74.00683594 23.08276367 C-77.07527194 23.69953473 -78.23417319 24.02154624 -80.69433594 26.08276367 C-84.99968048 29.3868653 -90.14033343 30.04178946 -95.38183594 31.14526367 C-95.38183594 31.80526367 -95.38183594 32.46526367 -95.38183594 33.14526367 C-96.94303016 33.93950228 -98.50585558 34.73053491 -100.06933594 35.52026367 C-100.93945312 35.96112305 -101.80957031 36.40198242 -102.70605469 36.85620117 C-105.22956393 38.07190635 -107.76921126 39.13787325 -110.38183594 40.14526367 C-109.78124271 36.52022046 -109.4720449 36.21366262 -106.29589844 33.80541992 C-104.87684014 32.92222263 -103.44601589 32.05777836 -102.00683594 31.20776367 C-101.22099121 30.73757812 -100.43514648 30.26739258 -99.62548828 29.78295898 C-84.8405332 21.14639878 -69.21597391 13.55446818 -53.06933594 7.83276367 C-52.27027832 7.54884766 -51.4712207 7.26493164 -50.64794922 6.97241211 C-46.425991 5.56234939 -42.89224508 4.83692092 -38.38183594 5.14526367 C-38.38183594 5.47526367 -38.38183594 5.80526367 -38.38183594 6.14526367 C-30.46183594 5.65026367 -30.46183594 5.65026367 -22.38183594 5.14526367 C-22.38183594 4.48526367 -22.38183594 3.82526367 -22.38183594 3.14526367 C-21.33382812 3.01249023 -20.28582031 2.8797168 -19.20605469 2.74291992 C-17.82712816 2.56469132 -16.44822301 2.38629726 -15.06933594 2.20776367 C-14.03389648 2.07724609 -14.03389648 2.07724609 -12.97753906 1.9440918 C-8.53464903 1.3645844 -4.47547623 0.02196478 0 0 Z " fill="#1D7999" transform="translate(231.3818359375,21.854736328125)"/>
<path d="M0 0 C24.89440223 -1.63539869 53.49717583 7.69680667 72.546875 23.796875 C92.71966488 41.91383916 112.9893 69.0646525 116 97 C116.31373214 103.42726916 116.1515408 109.66652561 115 116 C114.67 116 114.34 116 114 116 C113.93268677 115.0553186 113.93268677 115.0553186 113.86401367 114.09155273 C113.6511654 111.20577551 113.41948607 108.32179929 113.1875 105.4375 C113.11724609 104.44685547 113.04699219 103.45621094 112.97460938 102.43554688 C112.49027147 96.60411845 111.54870136 92.25226052 109 87 C108.34542515 84.90484508 107.71967477 82.80043736 107.125 80.6875 C104.09603665 69.98875135 104.09603665 69.98875135 97 62 C96.31246699 60.34183216 95.64438717 58.67540664 95 57 C94.34 56.67 93.68 56.34 93 56 C92.375 52.9375 92.375 52.9375 92 50 C91.34 50 90.68 50 90 50 C87 46.53846154 87 46.53846154 87 44 C85.68 44 84.36 44 83 44 C82.7525 43.278125 82.505 42.55625 82.25 41.8125 C80.87122087 38.71024696 79.29054328 36.49877449 77 34 C75.515 33.505 75.515 33.505 74 33 C74 32.34 74 31.68 74 31 C72.68 30.34 71.36 29.68 70 29 C70 28.34 70 27.68 70 27 C69.0925 26.773125 68.185 26.54625 67.25 26.3125 C64 25 64 25 62.1875 22.625 C59.07909997 18.89491996 55.43588798 17.76443468 51 16 C49.3926094 15.29901336 47.78831491 14.59087598 46.1875 13.875 C45.12595703 13.40707031 45.12595703 13.40707031 44.04296875 12.9296875 C42 12 42 12 40.26953125 11.01171875 C36.81027657 9.46964136 33.18718142 8.726354 29.5 7.9375 C28.67717529 7.7612207 27.85435059 7.58494141 27.0065918 7.40332031 C17.72725037 5.55147777 8.43815005 5.19890727 -1 5 C-0.67 3.35 -0.34 1.7 0 0 Z " fill="#186695" transform="translate(21,209)"/>
<path d="M0 0 C-0.33 1.65 -0.66 3.3 -1 5 C-1.55872803 5.04487549 -2.11745605 5.08975098 -2.69311523 5.13598633 C-5.27567165 5.35002212 -7.85643746 5.58116977 -10.4375 5.8125 C-11.31599609 5.88275391 -12.19449219 5.95300781 -13.09960938 6.02539062 C-18.37684405 6.51222039 -22.95290311 7.51499408 -27.92993164 9.32006836 C-30.91507083 10.30056283 -33.88084274 10.57896887 -37 10.875 C-42.45537032 11.56867855 -46.35789376 12.75280071 -50.9375 15.78125 C-53 17 -53 17 -55.89453125 17.90234375 C-59.38778898 19.13706755 -61.75692156 20.81040973 -64.6875 23.0625 C-69.70833333 26.90277778 -69.70833333 26.90277778 -73 28 C-73.020625 28.70125 -73.04125 29.4025 -73.0625 30.125 C-74.75777056 35.32382971 -79.58994281 38.05996187 -84 41 C-84.33 41.99 -84.66 42.98 -85 44 C-85.99 44.66 -86.98 45.32 -88 46 C-88.33 46.99 -88.66 47.98 -89 49 C-89.99 49.495 -89.99 49.495 -91 50 C-91.68559481 51.65897016 -92.34962241 53.32690968 -93 55 C-93.89751041 56.44233344 -94.83658669 57.85951666 -95.8125 59.25 C-101.15114315 67.09559724 -107.20524732 76.13869899 -108.5 85.6875 C-109.09982595 89.6613469 -110.79122784 91.68684177 -113 95 C-113.79682803 98.73225344 -113.79682803 98.73225344 -114 102 C-114.66 102 -115.32 102 -116 102 C-116.22024581 96.81421217 -115.55016057 92.45695859 -113.9375 87.5625 C-113.71489502 86.87438232 -113.49229004 86.18626465 -113.26293945 85.47729492 C-103.60191039 56.48103212 -84.64064638 27.55577276 -57 13 C-52.12127834 10.66058064 -47.11241729 8.75999154 -42 7 C-41.33145996 6.76796875 -40.66291992 6.5359375 -39.97412109 6.296875 C-26.56203939 1.71045903 -14.2253758 -0.3787822 0 0 Z " fill="#1B6696" transform="translate(492,209)"/>
<path d="M0 0 C0.66 0 1.32 0 2 0 C1.67 82.5 1.34 165 1 250 C0.34 250 -0.32 250 -1 250 C-1.02285218 220.31771768 -1.04053006 190.63543566 -1.05106533 160.95314642 C-1.05231592 157.44247846 -1.05361025 153.93181052 -1.05493164 150.42114258 C-1.05519395 149.72228276 -1.05545626 149.02342295 -1.05572652 148.30338556 C-1.06006829 137.01326134 -1.06794759 125.72314225 -1.0771528 114.43302106 C-1.08653093 102.83337155 -1.09198963 91.23372501 -1.09408849 79.63407189 C-1.09538885 73.12504038 -1.09843187 66.61602049 -1.10573006 60.10699272 C-1.11255306 53.97164233 -1.11460425 47.83630826 -1.11310768 41.70095444 C-1.1133812 39.4577367 -1.11534886 37.21451838 -1.11920547 34.97130394 C-1.13832636 23.26857382 -1.01707484 11.66442229 0 0 Z " fill="#2095BB" transform="translate(308,237)"/>
<path d="M0 0 C1.32 0 2.64 0 4 0 C4.495 0.99 4.495 0.99 5 2 C3.875 4.1875 3.875 4.1875 2 7 C1.38318359 7.93199219 1.38318359 7.93199219 0.75390625 8.8828125 C-1.79757315 12.62296331 -1.79757315 12.62296331 -3 14 C-3.66 14 -4.32 14 -5 14 C-5.2475 14.86625 -5.495 15.7325 -5.75 16.625 C-7.25173905 20.67969543 -8.9784662 24.9892331 -13 27 C-13.86865849 28.78878353 -13.86865849 28.78878353 -14.5859375 30.97265625 C-14.87726563 31.79056641 -15.16859375 32.60847656 -15.46875 33.45117188 C-15.7678125 34.31291016 -16.066875 35.17464844 -16.375 36.0625 C-18.0761738 40.93643821 -19.76242707 45.69078097 -22.1484375 50.27734375 C-23.72988457 53.32497988 -24.68129988 56.08779931 -25.25 59.5 C-25.39953125 60.3559375 -25.5490625 61.211875 -25.703125 62.09375 C-25.80109375 62.7228125 -25.8990625 63.351875 -26 64 C-27.485 64.495 -27.485 64.495 -29 65 C-29.04898437 65.6290625 -29.09796875 66.258125 -29.1484375 66.90625 C-29.57196664 71.75492848 -30.23825603 76.28270296 -31.5234375 80.97265625 C-32.37572337 84.59836419 -32.67413549 88.29543503 -33 92 C-33.99 92 -34.98 92 -36 92 C-36.17324939 86.12284764 -35.62705021 80.86161184 -34.375 75.125 C-34.19606201 74.30056396 -34.01712402 73.47612793 -33.83276367 72.62670898 C-28.40904541 48.63744985 -17.69525152 17.88470817 0 0 Z " fill="#1A8FAE" transform="translate(345,143)"/>
<path d="M0 0 C5.80601296 1.65886085 10.14513157 4.09631925 14.375 8.4375 C16.59167177 10.60139387 18.16912319 11.73938359 20.796875 13.21484375 C25.14862917 15.89623263 27.91034112 19.00542562 30.875 23.125 C31.63417725 24.16237305 31.63417725 24.16237305 32.40869141 25.22070312 C45.97652592 44.29635653 57.84117184 68.32914653 54.5 92.25 C54.335 93.1575 54.17 94.065 54 95 C53.67 95 53.34 95 53 95 C52.93268677 94.0553186 52.93268677 94.0553186 52.86401367 93.09155273 C52.6511654 90.20577551 52.41948607 87.32179929 52.1875 84.4375 C52.11724609 83.44685547 52.04699219 82.45621094 51.97460938 81.43554688 C51.49027147 75.60411845 50.54870136 71.25226052 48 66 C47.34542515 63.90484508 46.71967477 61.80043736 46.125 59.6875 C43.09603665 48.98875135 43.09603665 48.98875135 36 41 C35.31246699 39.34183216 34.64438717 37.67540664 34 36 C33.01 35.505 33.01 35.505 32 35 C31.375 31.9375 31.375 31.9375 31 29 C30.34 29 29.68 29 29 29 C26 25.53846154 26 25.53846154 26 23 C24.68 23 23.36 23 22 23 C21.7525 22.278125 21.505 21.55625 21.25 20.8125 C19.87122087 17.71024696 18.29054328 15.49877449 16 13 C15.01 12.67 14.02 12.34 13 12 C13 11.34 13 10.68 13 10 C11.68 9.34 10.36 8.68 9 8 C9 7.34 9 6.68 9 6 C8.071875 5.7525 7.14375 5.505 6.1875 5.25 C2.83541675 3.93545755 1.8122197 3.02036616 0 0 Z " fill="#166FA9" transform="translate(82,230)"/>
<path d="M0 0 C1.32979889 -0.00956978 1.32979889 -0.00956978 2.6864624 -0.01933289 C3.6487677 -0.02044571 4.611073 -0.02155853 5.60253906 -0.02270508 C6.60915588 -0.02603348 7.61577271 -0.02936188 8.65289307 -0.03279114 C10.79821314 -0.03786401 12.94354113 -0.04019935 15.08886719 -0.04003906 C18.28627755 -0.04218146 21.4833169 -0.06020735 24.68066406 -0.0793457 C51.16236933 -0.1513529 77.13266938 1.33404176 101.61816406 12.14526367 C101.61816406 12.47526367 101.61816406 12.80526367 101.61816406 13.14526367 C96.47510374 13.52158516 93.2869555 12.19297921 88.61816406 10.14526367 C86.29121443 9.76994921 83.95839721 9.42609165 81.61816406 9.14526367 C81.12316406 8.65026367 81.12316406 8.65026367 80.61816406 8.14526367 C78.83896822 7.78720544 77.04839028 7.48538664 75.25488281 7.20776367 C74.13919922 7.0350293 73.02351563 6.86229492 71.87402344 6.68432617 C70.69646484 6.50643555 69.51890625 6.32854492 68.30566406 6.14526367 C67.17064453 5.96737305 66.035625 5.78948242 64.86621094 5.60620117 C50.54595409 3.41690919 36.49491595 2.93148116 22.02905273 2.9050293 C18.82346704 2.89531761 15.61852215 2.8642112 12.41308594 2.83276367 C1.07416559 2.7751371 -9.38358113 3.26070605 -20.38183594 6.14526367 C-21.16977539 6.3332251 -21.95771484 6.52118652 -22.76953125 6.71484375 C-25.36023713 7.33783507 -27.93240388 8.01732922 -30.49511719 8.74682617 C-34.21506977 9.76692286 -36.69867788 10.29421342 -40.38183594 9.14526367 C-34.3271022 6.5663956 -28.94109536 5.53505573 -22.38183594 5.14526367 C-22.38183594 4.48526367 -22.38183594 3.82526367 -22.38183594 3.14526367 C-21.33382812 3.01249023 -20.28582031 2.8797168 -19.20605469 2.74291992 C-17.82712816 2.56469132 -16.44822301 2.38629726 -15.06933594 2.20776367 C-14.03389648 2.07724609 -14.03389648 2.07724609 -12.97753906 1.9440918 C-8.53464903 1.3645844 -4.47547623 0.02196478 0 0 Z " fill="#188FB1" transform="translate(231.3818359375,21.854736328125)"/>
<path d="M0 0 C5.7482398 -0.41058856 8.81044454 0.19156276 13.77294922 3.01879883 C16.21035063 4.09267695 17.90001014 4.21762871 20.546875 4.28125 C26.94472345 4.82056597 31.82201033 7.4992452 37.375 10.5625 C38.37926025 11.10318115 39.38352051 11.6438623 40.41821289 12.20092773 C56.43856768 20.92904427 56.43856768 20.92904427 61 25 C61 25.99 61 26.98 61 28 C59.4375 28.75 59.4375 28.75 57 29 C54.49713591 27.86915563 52.32992278 26.47860484 50 25 C50 24.34 50 23.68 50 23 C49.278125 22.87625 48.55625 22.7525 47.8125 22.625 C45.04278106 22.0095069 42.6029646 21.11555626 40 20 C40 19.34 40 18.68 40 18 C37.51955467 17.00074751 35.03731597 16.0140748 32.53515625 15.0703125 C27.55478756 13.16628529 23.42175633 11.01483386 19 8 C14.4555092 6.22172099 9.73708763 5.14343495 5 4 C5 3.34 5 2.68 5 2 C3.35 1.67 1.7 1.34 0 1 C0 0.67 0 0.34 0 0 Z " fill="#1E7B96" transform="translate(333,35)"/>
<path d="M0 0 C0.66 0.33 1.32 0.66 2 1 C-1.34748009 5.33203306 -4.39166375 7.96268747 -9 11 C-9.33 11.99 -9.66 12.98 -10 14 C-10.99 14.66 -11.98 15.32 -13 16 C-13.33 16.99 -13.66 17.98 -14 19 C-14.66 19.33 -15.32 19.66 -16 20 C-16.68559481 21.65897016 -17.34962241 23.32690968 -18 25 C-18.89751041 26.44233344 -19.83658669 27.85951666 -20.8125 29.25 C-26.15114315 37.09559724 -32.20524732 46.13869899 -33.5 55.6875 C-34.09982595 59.6613469 -35.79122784 61.68684177 -38 65 C-38.79682803 68.73225344 -38.79682803 68.73225344 -39 72 C-39.66 72 -40.32 72 -41 72 C-41.22024581 66.81421217 -40.55016057 62.45695859 -38.9375 57.5625 C-38.71489502 56.87438232 -38.49229004 56.18626465 -38.26293945 55.47729492 C-33.06456173 39.87507224 -25.63798792 26.06371639 -15.875 12.8125 C-15.28174927 11.98262573 -15.28174927 11.98262573 -14.67651367 11.13598633 C-11.86458281 7.44645016 -9.50434156 6.01690814 -5 5 C-4.34 5 -3.68 5 -3 5 C-2.690625 4.360625 -2.38125 3.72125 -2.0625 3.0625 C-1 1 -1 1 0 0 Z " fill="#1874AD" transform="translate(417,239)"/>
<path d="M0 0 C1.73213685 3.00817722 2.24831954 5.15407865 2.23046875 8.61328125 C2.22853516 9.53431641 2.22660156 10.45535156 2.22460938 11.40429688 C2.21236328 12.36400391 2.20011719 13.32371094 2.1875 14.3125 C2.18685547 15.19873047 2.18621094 16.08496094 2.18554688 16.99804688 C2.14365799 23.82593467 1.84304926 30.634133 1.5234375 37.453125 C0.87659838 51.44264883 0.65925889 65.43591527 0.4375 79.4375 C0.39415986 82.03060365 0.35054158 84.62370266 0.30664062 87.21679688 C0.20123336 93.47781501 0.09921052 99.73888076 0 106 C-0.66 105.67 -1.32 105.34 -2 105 C-2.11338746 78.87029536 -2.0360729 52.75122655 -1.5625 26.625 C-1.54285187 25.4569986 -1.52320374 24.28899719 -1.50296021 23.08560181 C-1.44618074 19.77829299 -1.38259659 16.47119485 -1.31640625 13.1640625 C-1.29968872 12.17565872 -1.28297119 11.18725494 -1.26574707 10.16889954 C-1.24580688 9.26447617 -1.2258667 8.3600528 -1.20532227 7.42822266 C-1.18977798 6.64113922 -1.1742337 5.85405579 -1.15821838 5.04312134 C-1 3 -1 3 0 0 Z " fill="#3492C3" transform="translate(376,311)"/>
<path d="M0 0 C0.495 1.485 0.495 1.485 1 3 C0.566875 3.391875 0.13375 3.78375 -0.3125 4.1875 C-2.13858339 6.01043451 -2.13858339 6.01043451 -3.5 8.625 C-5 11 -5 11 -8 12 C-8.71247732 13.6476038 -9.37400383 15.31763529 -10 17 C-11.5 19.3125 -11.5 19.3125 -13 21 C-13.66 21 -14.32 21 -15 21 C-15 21.66 -15 22.32 -15 23 C-15.66 23 -16.32 23 -17 23 C-17.66 24.98 -18.32 26.96 -19 29 C-19.66 29 -20.32 29 -21 29 C-21.103125 30.2375 -21.20625 31.475 -21.3125 32.75 C-21.74774392 36.25682248 -22.37051757 38.47569687 -25 41 C-25.66 41 -26.32 41 -27 41 C-27.268125 42.03125 -27.53625 43.0625 -27.8125 44.125 C-29.37975078 49.53913906 -31.047729 53.92617662 -36 57 C-35.44717234 52.00919473 -33.79086006 48.02995454 -31.5 43.625 C-31.14687744 42.9345459 -30.79375488 42.2440918 -30.42993164 41.53271484 C-24.61263665 30.26035065 -18.61107001 19.18072387 -11 9 C-10.67 10.32 -10.34 11.64 -10 13 C-9.38125 12.01 -8.7625 11.02 -8.125 10 C-7.42375 9.01 -6.7225 8.02 -6 7 C-5.34 7 -4.68 7 -4 7 C-3.71125 6.401875 -3.4225 5.80375 -3.125 5.1875 C-2 3 -2 3 0 0 Z " fill="#208DA9" transform="translate(71,109)"/>
<path d="M0 0 C0.33 0.66 0.66 1.32 1 2 C0.328125 3.91796875 0.328125 3.91796875 -0.75 6.1875 C-1.12382812 6.99703125 -1.49765625 7.8065625 -1.8828125 8.640625 C-2.43582031 9.80851563 -2.43582031 9.80851563 -3 11 C-5.6468706 16.59914935 -6.96279198 21.93538369 -8 28 C-8.99 28.33 -9.98 28.66 -11 29 C-11.04898437 29.6290625 -11.09796875 30.258125 -11.1484375 30.90625 C-11.57196664 35.75492848 -12.23825603 40.28270296 -13.5234375 44.97265625 C-14.37572337 48.59836419 -14.67413549 52.29543503 -15 56 C-15.99 56 -16.98 56 -18 56 C-18.17326912 50.1221783 -17.62499508 44.86246539 -16.375 39.125 C-16.11420654 37.90466064 -16.11420654 37.90466064 -15.84814453 36.65966797 C-13.50323044 26.17521572 -10.08956231 15.93179419 -6 6 C-5.01 6 -4.02 6 -3 6 C-2.690625 5.195625 -2.38125 4.39125 -2.0625 3.5625 C-1 1 -1 1 0 0 Z " fill="#1A95B6" transform="translate(327,179)"/>
<path d="M0 0 C0.33 0 0.66 0 1 0 C1.82211874 3.56196106 2.10015316 6.78175838 2.02172852 10.43286133 C1.99158409 12.02394463 1.99158409 12.02394463 1.96083069 13.64717102 C1.93379562 14.7806749 1.90676056 15.91417877 1.87890625 17.08203125 C1.85529526 18.25134689 1.83168427 19.42066254 1.80735779 20.62541199 C1.73087814 24.35456965 1.64678585 28.08351141 1.5625 31.8125 C1.50926363 34.34308845 1.45652334 36.87368738 1.40429688 39.40429688 C1.27528418 45.60299772 1.14002339 51.80153863 1 58 C0.34 58 -0.32 58 -1 58 C-1.83037724 52.2174574 -2.14748347 46.62263208 -2.1328125 40.78515625 C-2.13376923 39.9299791 -2.13472595 39.07480194 -2.13571167 38.19371033 C-2.13638813 36.39614793 -2.13457137 34.59858301 -2.13037109 32.80102539 C-2.12502192 30.07367372 -2.13033095 27.3464872 -2.13671875 24.61914062 C-2.13605774 22.86197881 -2.13477612 21.10481709 -2.1328125 19.34765625 C-2.13483673 18.54425308 -2.13686096 17.74084991 -2.13894653 16.9131012 C-2.07855763 2.07855763 -2.07855763 2.07855763 0 0 Z " fill="#278ABD" transform="translate(18,228)"/>
<path d="M0 0 C1.32 1.32 2.64 2.64 4 4 C2.70990357 4.50403768 1.41786211 5.00309926 0.125 5.5 C-0.59429687 5.7784375 -1.31359375 6.056875 -2.0546875 6.34375 C-4 7 -4 7 -6 7 C-6 7.66 -6 8.32 -6 9 C-6.94875 9.350625 -7.8975 9.70125 -8.875 10.0625 C-15.08941188 12.71499287 -20.5902538 16.92649745 -25.6875 21.3125 C-28.7088936 23.51730074 -31.37168639 24.14627915 -35 25 C-35.66 24.34 -36.32 23.68 -37 23 C-12.6557377 6.32786885 -12.6557377 6.32786885 0 0 Z " fill="#1B7698" transform="translate(421,83)"/>
<path d="M0 0 C0.99 0.495 0.99 0.495 2 1 C2.5124913 3.59092825 2.86197067 6.06612754 3.125 8.6875 C3.20919189 9.50677979 3.29338379 10.32605957 3.38012695 11.17016602 C4.10437683 19.25285335 4.18249913 27.3265877 4.1875 35.4375 C4.18830566 36.69199951 4.18911133 37.94649902 4.18994141 39.23901367 C4.14455173 46.87103474 3.76247225 54.40598692 3 62 C2.34 62 1.68 62 1 62 C1.00523682 61.1248877 1.01047363 60.24977539 1.01586914 59.34814453 C1.15372637 37.50108427 1.15372637 37.50108427 0.22265625 15.6796875 C-0.09378906 10.45001243 -0.09241263 5.23671545 0 0 Z " fill="#308CBD" transform="translate(493,223)"/>
<path d="M0 0 C1.15242188 0.00902344 2.30484375 0.01804687 3.4921875 0.02734375 C4.36101562 0.03894531 5.22984375 0.05054687 6.125 0.0625 C2.9368973 2.84636958 0.41010558 3.63074764 -3.75 4.25 C-5.26207031 4.48783203 -5.26207031 4.48783203 -6.8046875 4.73046875 C-9.85503055 5.06034045 -12.80954645 5.12197895 -15.875 5.0625 C-15.875 5.7225 -15.875 6.3825 -15.875 7.0625 C-21.63581841 8.3607126 -26.96239655 9.31956972 -32.875 9.0625 C-33.205 8.0725 -33.535 7.0825 -33.875 6.0625 C-30.50081286 5.24659943 -27.12551419 4.4353913 -23.75 3.625 C-22.79867187 3.39490234 -21.84734375 3.16480469 -20.8671875 2.92773438 C-13.81728085 1.23869424 -7.28718987 -0.07435908 0 0 Z " fill="#177792" transform="translate(224.875,19.9375)"/>
<path d="M0 0 C4.16819461 4.03373672 8.00611113 8.32891179 11.87109375 12.65234375 C13.39173696 14.32923654 14.96182433 15.96182433 16.5625 17.5625 C18.76122348 19.76122348 20.77644915 22.02722818 22.8125 24.375 C29.23162712 31.61587067 36.68100272 37.40612808 44.34033203 43.26904297 C48.89267018 46.78534035 48.89267018 46.78534035 50 49 C36.77313851 44.34133551 25.61221689 30.70243445 15.8125 21 C15.05195312 20.25250488 14.29140625 19.50500977 13.5078125 18.73486328 C8.63272737 13.86722265 3.6795995 8.86029358 0 3 C0 2.01 0 1.02 0 0 Z " fill="#2C93C9" transform="translate(67,404)"/>
<path d="M0 0 C0.66 0 1.32 0 2 0 C3.30352292 3.14104638 4.59055489 6.28860948 5.875 9.4375 C6.23980469 10.31599609 6.60460937 11.19449219 6.98046875 12.09960938 C11.82655577 24.03860557 13.32258829 35.22576438 11 48 C10.67 48 10.34 48 10 48 C9.95512451 47.3702124 9.91024902 46.7404248 9.86401367 46.09155273 C9.6511654 43.20577551 9.41948607 40.32179929 9.1875 37.4375 C9.11724609 36.44685547 9.04699219 35.45621094 8.97460938 34.43554688 C8.48990166 28.59966596 7.54833201 24.25633395 5 19 C4.25988357 16.71839971 3.5500884 14.42667936 2.875 12.125 C1.99882329 8.26170543 1.99882329 8.26170543 0 5 C-0.04063832 3.33382885 -0.042721 1.66611905 0 0 Z " fill="#1B75B0" transform="translate(125,277)"/>
<path d="M0 0 C4.79434519 3.67496063 5.89601096 8.71876515 7.625 14.25 C8.07359375 15.62478516 8.07359375 15.62478516 8.53125 17.02734375 C13.37230173 32.04317234 13.37230173 32.04317234 13 38 C12.34 37.67 11.68 37.34 11 37 C11 36.01 11 35.02 11 34 C10.34 34 9.68 34 9 34 C8.71125 32.783125 8.4225 31.56625 8.125 30.3125 C7.32011574 27.07583775 6.28406431 24.08175434 5 21 C4.85820312 20.41605469 4.71640625 19.83210938 4.5703125 19.23046875 C3.58982516 15.39582306 2.16404025 11.7001987 0.83984375 7.97265625 C0.03933583 5.13923055 -0.1668025 2.92173408 0 0 Z " fill="#1E94B5" transform="translate(189,184)"/>
<path d="M0 0 C0.99 0.495 0.99 0.495 2 1 C2 16.84 2 32.68 2 49 C2.66 49.33 3.32 49.66 4 50 C2.515 50.495 2.515 50.495 1 51 C0 50 0 50 -0.12025452 47.98155212 C-0.11803391 47.09552811 -0.11581329 46.20950409 -0.11352539 45.29663086 C-0.11344986 44.29566879 -0.11337433 43.29470673 -0.11329651 42.26341248 C-0.10813522 41.1748848 -0.10297394 40.08635712 -0.09765625 38.96484375 C-0.0962413 37.85645645 -0.09482635 36.74806915 -0.09336853 35.60609436 C-0.08775033 32.04986931 -0.07519475 28.49370617 -0.0625 24.9375 C-0.05748734 22.53320403 -0.05292403 20.12890708 -0.04882812 17.72460938 C-0.03777499 11.81638496 -0.02101917 5.9081969 0 0 Z " fill="#2B88BA" transform="translate(374,416)"/>
<path d="M0 0 C0.66 0.99 1.32 1.98 2 3 C-0.97 2.67 -3.94 2.34 -7 2 C-7 2.66 -7 3.32 -7 4 C-7.928125 4.598125 -8.85625 5.19625 -9.8125 5.8125 C-13.16559209 8.11364163 -14.00542646 9.5693335 -16 13 C-18.24480069 15.42681156 -20.60450961 17.72264338 -23 20 C-23.99 19.67 -24.98 19.34 -26 19 C-24.35185263 15.00011019 -21.58320795 12.07163278 -18.6875 8.9375 C-18.21376953 8.40833984 -17.74003906 7.87917969 -17.25195312 7.33398438 C-11.75518133 1.34092401 -7.99767939 -0.78665699 0 0 Z " fill="#18809F" transform="translate(97,89)"/>
<path d="M0 0 C0.66 0.33 1.32 0.66 2 1 C-0.33953059 4.21685457 -2.8577475 6.8143815 -5.875 9.375 C-13.15905356 15.56309334 -13.15905356 15.56309334 -17 24 C-19.30691759 27.81834636 -21.74756032 30.95739514 -25 34 C-25.5775 34.5775 -26.155 35.155 -26.75 35.75 C-27.1625 36.1625 -27.575 36.575 -28 37 C-26.91357559 28.77421521 -22.40535938 24.05569168 -17 18 C-16.236875 17.12730469 -15.47375 16.25460938 -14.6875 15.35546875 C-9.98338831 10.03884252 -5.08102532 4.95642252 0 0 Z " fill="#24839E" transform="translate(88,86)"/>
<path d="M0 0 C3.53647504 1.67517239 4.7911563 2.49280817 6.3125 6.1875 C6.539375 7.115625 6.76625 8.04375 7 9 C8.2981424 7.8509288 8.2981424 7.8509288 9 5 C13.44707038 8.93394688 18.79408923 14.66330952 19.171875 20.78515625 C19.11515625 21.51605469 19.0584375 22.24695313 19 23 C14.42158813 19.37328048 11.16801862 15.96322917 8 11 C6.35353315 9.31337542 4.68816933 7.64488294 3 6 C0 2.37931034 0 2.37931034 0 0 Z " fill="#1A8CA9" transform="translate(157,137)"/>
<path d="M0 0 C5.27440258 0.31966076 8.43823349 3.39036029 12 7 C12.33 7.66 12.66 8.32 13 9 C15.93704456 11.0095568 17.39222485 12 21 12 C21.99 13.485 21.99 13.485 23 15 C22.01 15.33 21.02 15.66 20 16 C20.33 16.66 20.66 17.32 21 18 C18.33333333 16.66666667 15.66666667 15.33333333 13 14 C13 13.34 13 12.68 13 12 C12.34 12 11.68 12 11 12 C9.66666667 10.66666667 8.33333333 9.33333333 7 8 C6.319375 7.71125 5.63875 7.4225 4.9375 7.125 C2.04158079 5.44349852 1.30162801 2.99374442 0 0 Z " fill="#16839F" transform="translate(127,110)"/>
<path d="M0 0 C0.66 0 1.32 0 2 0 C2.06669472 11.01203902 1.87748166 21.99476278 1.5 33 C1.4515835 34.46874213 1.40340556 35.93749214 1.35546875 37.40625 C1.23971031 40.93759455 1.12078988 44.46882353 1 48 C0.67 48 0.34 48 0 48 C-1.84476743 32.08888089 -1.3703876 15.93075585 0 0 Z " fill="#1898B9" transform="translate(308,237)"/>
<path d="M0 0 C5.30848211 0.41071428 8.6303991 3.35449935 12.6875 6.5 C13.74227539 7.3038916 13.74227539 7.3038916 14.81835938 8.12402344 C20.47139617 12.47908982 25.82948076 17.07806342 31 22 C30.67 22.66 30.34 23.32 30 24 C25.15611054 20.95848802 21.32035546 17.61039989 17.5 13.3125 C16.01574162 11.85181346 16.01574162 11.85181346 13.76953125 11.203125 C10.40654921 9.74219627 7.9998398 7.78299892 5.1875 5.4375 C4.21167969 4.63183594 3.23585938 3.82617188 2.23046875 2.99609375 C1.49441406 2.33738281 0.75835937 1.67867188 0 1 C0 0.67 0 0.34 0 0 Z " fill="#227C94" transform="translate(115,99)"/>
<path d="M0 0 C15.60164103 0.37776371 28.67044252 3.59631497 43 10 C43 10.33 43 10.66 43 11 C37.85693968 11.37632149 34.66879144 10.04771554 30 8 C27.67810464 7.5945897 25.34484656 7.23927006 23 7 C22.67 6.01 22.34 5.02 22 4 C20.783125 3.87625 19.56625 3.7525 18.3125 3.625 C12.17872556 2.94891304 6.09298824 1.96998113 0 1 C0 0.67 0 0.34 0 0 Z " fill="#15819E" transform="translate(290,24)"/>
<path d="M0 0 C-2.97 0.66 -5.94 1.32 -9 2 C-9 2.66 -9 3.32 -9 4 C-10.05058594 4.50789062 -11.10117187 5.01578125 -12.18359375 5.5390625 C-19.16932135 8.95247685 -25.97331258 12.3088521 -32.30078125 16.87109375 C-34 18 -34 18 -37 19 C-37 18.34 -37 17.68 -37 17 C-34.98828125 15.4140625 -34.98828125 15.4140625 -32.3125 13.625 C-29.50416709 11.72512921 -26.84730932 9.87160102 -24.25 7.6875 C-21.58971675 5.69228756 -19.16768064 4.99378216 -16 4 C-13.95006222 3.01269921 -11.93820858 1.97113509 -9.9296875 0.90234375 C-5.99783431 -0.93623538 -4.3580058 -1.08950145 0 0 Z " fill="#1573A7" transform="translate(456,220)"/>
<path d="M0 0 C-2.1862225 1.10675619 -4.37390948 2.21044378 -6.5625 3.3125 C-7.17158203 3.62123047 -7.78066406 3.92996094 -8.40820312 4.24804688 C-19.86110646 10.00479723 -19.86110646 10.00479723 -25.625 10.9375 C-29.69584879 11.75029214 -31.80684193 13.32465135 -35 16 C-38.3125 16.75 -38.3125 16.75 -41 17 C-40.67 16.34 -40.34 15.68 -40 15 C-36.9375 14.375 -36.9375 14.375 -34 14 C-34 13.34 -34 12.68 -34 12 C-28.46889608 9.02171327 -23.02266154 6.9794815 -17.0390625 5.0859375 C-13.18717077 3.70955459 -9.70688249 1.87341155 -6.15625 -0.14453125 C-3.63252 -1.1457937 -2.5051323 -0.92803765 0 0 Z " fill="#188CAE" transform="translate(183,34)"/>
<path d="M0 0 C8.54177576 0.7513599 15.89862072 2.29274952 23.69140625 5.92578125 C26.77596453 7.36106641 29.91547437 8.66183786 33.0546875 9.97265625 C35.11566534 11.06108431 36.44745578 12.27657827 38 14 C33.88043493 13.38773437 30.73720087 11.996802 27.0625 10.0625 C19.53405379 6.10885148 12.26344258 4.37980505 3.94921875 2.78125 C2.97597656 2.5234375 2.00273438 2.265625 1 2 C0.67 1.34 0.34 0.68 0 0 Z " fill="#1679AF" transform="translate(44,216)"/>
<path d="M0 0 C0.66 0.66 1.32 1.32 2 2 C-17.10889855 21.60672556 -17.10889855 21.60672556 -23 25 C-23.99 24.67 -24.98 24.34 -26 24 C-24.97916667 23.125 -23.95833333 22.25 -22.9375 21.375 C-21.98037109 20.55322266 -21.98037109 20.55322266 -21.00390625 19.71484375 C-19.72375611 18.61935465 -18.44022263 17.52779879 -17.15234375 16.44140625 C-13.60011362 13.43567306 -10.25282926 10.33414999 -7 7 C-5.73049808 5.72783665 -4.45960735 4.45705804 -3.1875 3.1875 C-2.58292969 2.58292969 -1.97835938 1.97835938 -1.35546875 1.35546875 C-0.68451172 0.68451172 -0.68451172 0.68451172 0 0 Z " fill="#2594C8" transform="translate(430,421)"/>
<path d="M0 0 C2 2 2 2 2.23046875 5.66015625 C2.22647733 7.12766864 2.21172158 8.59518209 2.1875 10.0625 C2.18685547 10.80822266 2.18621094 11.55394531 2.18554688 12.32226562 C2.14028159 17.85971841 2.14028159 17.85971841 1 19 C0.84111908 21.28988781 0.74861927 23.58443441 0.68359375 25.87890625 C0.66281265 26.5655687 0.64203156 27.25223114 0.62062073 27.95970154 C0.55505857 30.16052935 0.49620985 32.36147975 0.4375 34.5625 C0.39432108 36.05144514 0.350707 37.54037773 0.30664062 39.02929688 C0.1993707 42.68606553 0.09812228 46.34297318 0 50 C-0.33 50 -0.66 50 -1 50 C-1.02498397 44.80794615 -1.04299248 39.61592839 -1.05493164 34.42382812 C-1.05991642 32.6627542 -1.06670666 30.90168432 -1.07543945 29.140625 C-1.12259579 19.37648855 -1.09018514 9.71948604 0 0 Z " fill="#278ABD" transform="translate(136,318)"/>
<path d="M0 0 C0.66 0 1.32 0 2 0 C3.33257403 11.52164009 3.33257403 11.52164009 2 17 C0 13 0 13 0 4 C-10.89 4.495 -10.89 4.495 -22 5 C-17.97676348 0.97676348 -11.43116753 1.94334822 -6.0625 1.9375 C-4.04162221 1.9534483 -2.02075566 1.97265143 0 2 C0 1.34 0 0.68 0 0 Z " fill="#197BB4" transform="translate(491,212)"/>
<path d="M0 0 C0.99 0.33 1.98 0.66 3 1 C2.34 1 1.68 1 1 1 C0.7525 1.61875 0.505 2.2375 0.25 2.875 C-1 5 -1 5 -3.0625 6 C-5.21280279 6.8295822 -5.21280279 6.8295822 -5.75 9.125 C-5.8325 9.74375 -5.915 10.3625 -6 11 C-6.66 11 -7.32 11 -8 11 C-8.66 12.32 -9.32 13.64 -10 15 C-10.66 15 -11.32 15 -12 15 C-12.061875 15.5775 -12.12375 16.155 -12.1875 16.75 C-13.32027301 19.88690987 -15.34197595 21.09167504 -18 23 C-18.33 22.01 -18.66 21.02 -19 20 C-16.77234548 17.60275688 -14.54260279 15.20746553 -12.3125 12.8125 C-11.68666016 12.13896484 -11.06082031 11.46542969 -10.41601562 10.77148438 C-7.00692833 7.11251634 -3.56346011 3.50895212 0 0 Z " fill="#1D7E9A" transform="translate(365,122)"/>
<path d="M0 0 C0.33 0 0.66 0 1 0 C2.53140195 9.12004552 3.27675737 17.74400342 3 27 C2.34 27.33 1.68 27.66 1 28 C-0.67628785 18.98995278 -1.57003462 10.17358033 -1 1 C-0.67 0.67 -0.34 0.34 0 0 Z " fill="#1D99BB" transform="translate(202,223)"/>
<path d="M0 0 C0.33 0.66 0.66 1.32 1 2 C8.92 2 16.84 2 25 2 C25 2.33 25 2.66 25 3 C24.44127197 3.04487549 23.88254395 3.08975098 23.30688477 3.13598633 C20.72432835 3.35002212 18.14356254 3.58116977 15.5625 3.8125 C14.24475586 3.91788086 14.24475586 3.91788086 12.90039062 4.02539062 C7.58174624 4.51604048 2.9001287 5.48109284 -2.10351562 7.3671875 C-4.45637734 8.15228245 -6.53939252 8.2381233 -9 8 C-9 7.34 -9 6.68 -9 6 C-6.09399739 4.74335022 -4.20395416 4 -1 4 C-1 3.34 -1 2.68 -1 2 C-1.99 1.67 -2.98 1.34 -4 1 C-2.68 0.67 -1.36 0.34 0 0 Z " fill="#1466A2" transform="translate(466,211)"/>
<path d="M0 0 C-1.25490481 3.76471443 -2.42305949 4.0943702 -5.8125 6 C-8.37216943 7.45186568 -10.79677641 8.84338732 -13.12890625 10.640625 C-15.67515828 12.49051165 -17.90044728 12.73047368 -21 13 C-21.66 12.67 -22.32 12.34 -23 12 C-22.67 10.68 -22.34 9.36 -22 8 C-21.34 8 -20.68 8 -20 8 C-19.67 8.66 -19.34 9.32 -19 10 C-17.96875 9.38125 -16.9375 8.7625 -15.875 8.125 C-12.68527517 6.29301955 -9.54111979 5.0364253 -6 4 C-6 3.34 -6 2.68 -6 2 C-2.25 0 -2.25 0 0 0 Z " fill="#1890B4" transform="translate(142,51)"/>
<path d="M0 0 C0.66 0.66 1.32 1.32 2 2 C1.67 2.99 1.34 3.98 1 5 C-0.98 4.01 -2.96 3.02 -5 2 C-5 2.66 -5 3.32 -5 4 C-6.5778125 4.61875 -6.5778125 4.61875 -8.1875 5.25 C-10.86550663 6.37303504 -12.39679157 7.33219759 -14.6875 9.25 C-17 11 -17 11 -19.3125 10.75 C-19.869375 10.5025 -20.42625 10.255 -21 10 C-17.00386479 6.28930302 -14.62917348 4.40208382 -9 4 C-9 3.34 -9 2.68 -9 2 C-5.88401212 0.15348866 -3.61754103 -0.38079379 0 0 Z " fill="#178DAF" transform="translate(424,88)"/>
<path d="M0 0 C4.12357938 4.85993284 8 9.44005979 8 16 C7.01 16 6.02 16 5 16 C4.67 15.01 4.34 14.02 4 13 C3.01 12.34 2.02 11.68 1 11 C0.48828125 8.3984375 0.48828125 8.3984375 0.3125 5.375 C0.24675781 4.37210938 0.18101562 3.36921875 0.11328125 2.3359375 C0.07589844 1.56507813 0.03851563 0.79421875 0 0 Z " fill="#1F89A5" transform="translate(177,158)"/>
<path d="M0 0 C5.63177258 0.62575251 5.63177258 0.62575251 7.43359375 2.45703125 C9.31346349 4.30877326 10.71993844 4.69382958 13.25 5.375 C17.94469028 6.81183647 21.15584371 8.9737493 25 12 C23.68 12.33 22.36 12.66 21 13 C21 12.34 21 11.68 21 11 C18.51955467 10.00074751 16.03731597 9.0140748 13.53515625 8.0703125 C8.57382812 6.17356462 4.2322645 4.22988607 0 1 C0 0.67 0 0.34 0 0 Z " fill="#188DAF" transform="translate(352,42)"/>
<path d="M0 0 C0.33 0 0.66 0 1 0 C1 7.59 1 15.18 1 23 C1.66 23.33 2.32 23.66 3 24 C2.01 24.33 1.02 24.66 0 25 C-1.68516954 23.31483046 -1.13008019 21.21232212 -1.1328125 18.90625 C-1.13474609 17.36130859 -1.13474609 17.36130859 -1.13671875 15.78515625 C-1.13285156 14.70105469 -1.12898438 13.61695313 -1.125 12.5 C-1.12886719 11.41589844 -1.13273437 10.33179688 -1.13671875 9.21484375 C-1.13542969 8.18488281 -1.13414062 7.15492188 -1.1328125 6.09375 C-1.13168457 5.14177734 -1.13055664 4.18980469 -1.12939453 3.20898438 C-1 1 -1 1 0 0 Z " fill="#2082B6" transform="translate(375,442)"/>
<path d="M0 0 C0.99 0.495 0.99 0.495 2 1 C3.23441802 7.38645012 2.95039306 13.53511569 2.5625 20 C2.51029297 20.96550781 2.45808594 21.93101562 2.40429688 22.92578125 C2.27586364 25.2842825 2.14096811 27.64222045 2 30 C1.67 30 1.34 30 1 30 C0.37722531 19.99112106 -0.17707265 10.03411669 0 0 Z " fill="#2886B7" transform="translate(493,223)"/>
<path d="M0 0 C8.25 0 16.5 0 25 0 C25 0.66 25 1.32 25 2 C20.98173156 3.33942281 17.27048313 3.22338825 13.0625 3.25 C12.25103516 3.270625 11.43957031 3.29125 10.60351562 3.3125 C9.81783203 3.31765625 9.03214844 3.3228125 8.22265625 3.328125 C7.15156616 3.34214355 7.15156616 3.34214355 6.05883789 3.35644531 C4 3 4 3 0 0 Z " fill="#21ABCB" transform="translate(244,496)"/>
<path d="M0 0 C2.97 1.65 5.94 3.3 9 5 C8.67 5.66 8.34 6.32 8 7 C7.31292969 6.97679688 6.62585938 6.95359375 5.91796875 6.9296875 C5.01691406 6.91164063 4.11585937 6.89359375 3.1875 6.875 C2.29417969 6.85179688 1.40085937 6.82859375 0.48046875 6.8046875 C-2.25402714 6.81714173 -2.25402714 6.81714173 -5 9 C-3.50163895 5.88801935 -1.80066242 2.9465385 0 0 Z " fill="#197898" transform="translate(91,83)"/>
<path d="M0 0 C0.66 0 1.32 0 2 0 C2 0.99 2 1.98 2 3 C1.01 3.66 0.02 4.32 -1 5 C-1.33 5.99 -1.66 6.98 -2 8 C-2.66 8 -3.32 8 -4 8 C-4.2475 8.94875 -4.495 9.8975 -4.75 10.875 C-6 14 -6 14 -8.125 15.375 C-8.74375 15.58125 -9.3625 15.7875 -10 16 C-9.50899352 11.28806058 -7.56486733 8.77592943 -4.5625 5.1875 C-3.75941406 4.21167969 -2.95632813 3.23585937 -2.12890625 2.23046875 C-1.42636719 1.49441406 -0.72382813 0.75835937 0 0 Z " fill="#1E6C9F" transform="translate(404,249)"/>
<path d="M0 0 C7.73752038 -0.8759457 12.50320831 1.98727572 19 6 C19 6.33 19 6.66 19 7 C15.28400809 7.20086443 14.22791555 7.1519437 11 5 C9.0103005 4.60986284 7.00980131 4.26797351 5 4 C5 3.34 5 2.68 5 2 C3.35 1.67 1.7 1.34 0 1 C0 0.67 0 0.34 0 0 Z " fill="#188BAD" transform="translate(333,35)"/>
<path d="M0 0 C0.33 0.99 0.66 1.98 1 3 C0.3503125 3.5878125 0.3503125 3.5878125 -0.3125 4.1875 C-2.13858339 6.01043451 -2.13858339 6.01043451 -3.5 8.625 C-5 11 -5 11 -8 12 C-8.71247732 13.6476038 -9.37400383 15.31763529 -10 17 C-10.95824253 18.36365283 -11.94721175 19.70794169 -13 21 C-13.66 20.67 -14.32 20.34 -15 20 C-13.73918284 18.01443758 -12.46601576 16.03671263 -11.1875 14.0625 C-10.47980469 12.96035156 -9.77210937 11.85820313 -9.04296875 10.72265625 C-7 8 -7 8 -4 7 C-2.89163577 5.11683841 -2.89163577 5.11683841 -2 3 C-1.34 2.01 -0.68 1.02 0 0 Z " fill="#1993B6" transform="translate(71,109)"/>
<path d="M0 0 C3.55523589 0.60946901 6.74718795 1.41755089 10 3 C10.99 4.485 10.99 4.485 12 6 C12.99 6.33 13.98 6.66 15 7 C15.33 6.01 15.66 5.02 16 4 C16.33 5.32 16.66 6.64 17 8 C15.4375 8.75 15.4375 8.75 13 9 C10.49713591 7.86915563 8.32992278 6.47860484 6 5 C6 4.34 6 3.68 6 3 C5.195625 2.87625 4.39125 2.7525 3.5625 2.625 C2.716875 2.41875 1.87125 2.2125 1 2 C0.67 1.34 0.34 0.68 0 0 Z " fill="#1986AC" transform="translate(377,55)"/>
<path d="M0 0 C0 0.33 0 0.66 0 1 C-2.8740422 1.50612064 -5.74902873 2.00506541 -8.625 2.5 C-9.43324219 2.64308594 -10.24148437 2.78617188 -11.07421875 2.93359375 C-15.43877864 3.67876251 -19.55238129 4.17272306 -24 4 C-24 3.34 -24 2.68 -24 2 C-15.92046224 0.18655665 -8.26747851 -0.23658921 0 0 Z " fill="#267897" transform="translate(231,20)"/>
<path d="M0 0 C4.29 0 8.58 0 13 0 C13 0.66 13 1.32 13 2 C9.04 2 5.08 2 1 2 C1 2.66 1 3.32 1 4 C3.97 4 6.94 4 10 4 C10 4.33 10 4.66 10 5 C6.37 5 2.74 5 -1 5 C-0.67 3.35 -0.34 1.7 0 0 Z " fill="#256E9F" transform="translate(21,209)"/>
<path d="M0 0 C0.66 0 1.32 0 2 0 C3.61439319 2.24237733 5.1031638 4.47249014 6.5625 6.8125 C6.97435547 7.45509766 7.38621094 8.09769531 7.81054688 8.75976562 C9.53157341 11.47791719 10.9789447 13.93683409 12 17 C7.65179136 15.51142407 5.9591978 12.27200068 3.75 8.5 C3.38648438 7.90574219 3.02296875 7.31148438 2.6484375 6.69921875 C0 2.28847509 0 2.28847509 0 0 Z " fill="#299BCD" transform="translate(51,382)"/>
<path d="M0 0 C1.32 0.33 2.64 0.66 4 1 C3.38545304 4.99455527 1.29353263 7.74466336 -1 11 C-1.66 10.34 -2.32 9.68 -3 9 C-2.6442194 5.62008426 -1.64284201 2.95711562 0 0 Z " fill="#156AB3" transform="translate(388,272)"/>
<path d="M0 0 C2.19921875 -0.28125 2.19921875 -0.28125 5 0 C7.45703125 1.96875 7.45703125 1.96875 9.8125 4.5 C10.60269531 5.3353125 11.39289063 6.170625 12.20703125 7.03125 C12.79871094 7.6809375 13.39039063 8.330625 14 9 C13.67 9.66 13.34 10.32 13 11 C9.16202456 9.43638038 6.8332373 6.97489917 4 4 C3.236875 3.236875 2.47375 2.47375 1.6875 1.6875 C1.130625 1.130625 0.57375 0.57375 0 0 Z " fill="#197A97" transform="translate(146,125)"/>
<path d="M0 0 C0.66 0.33 1.32 0.66 2 1 C-9.94213932 10.72363913 -9.94213932 10.72363913 -14 13 C-14.99 12.67 -15.98 12.34 -17 12 C-5.47835991 3.55353075 -5.47835991 3.55353075 0 0 Z " fill="#2E8EC8" transform="translate(402,447)"/>
<path d="M0 0 C-5.95273258 3.74801681 -11.95830655 7.39726886 -18 11 C-18.33 10.34 -18.66 9.68 -19 9 C-4.46158651 -1.4871955 -4.46158651 -1.4871955 0 0 Z " fill="#167BB4" transform="translate(438,228)"/>
<path d="M0 0 C3.43742918 -0.05802698 6.87473253 -0.09360486 10.3125 -0.125 C11.28896484 -0.14175781 12.26542969 -0.15851563 13.27148438 -0.17578125 C14.20927734 -0.18222656 15.14707031 -0.18867188 16.11328125 -0.1953125 C16.97735596 -0.20578613 17.84143066 -0.21625977 18.73168945 -0.22705078 C21 0 21 0 24 2 C23.44014404 1.98428955 22.88028809 1.9685791 22.3034668 1.95239258 C19.7649141 1.89000152 17.22652271 1.85099782 14.6875 1.8125 C13.80642578 1.78736328 12.92535156 1.76222656 12.01757812 1.73632812 C11.17001953 1.72666016 10.32246094 1.71699219 9.44921875 1.70703125 C8.66893311 1.6913208 7.88864746 1.67561035 7.0847168 1.65942383 C4.50096147 2.08152696 3.63707833 3.01489942 2 5 C2 3.68 2 2.36 2 1 C1.34 0.67 0.68 0.34 0 0 Z " fill="#1677B4" transform="translate(19,214)"/>
<path d="M0 0 C1.85537656 5.56612969 -0.64750078 11.79089459 -3 17 C-3.66 17 -4.32 17 -5 17 C-4.53444296 10.59859065 -2.85288164 5.73230171 0 0 Z " fill="#2190AD" transform="translate(317,199)"/>
<path d="M0 0 C4.3590077 3.48720616 4.94552183 6.72760915 6 12 C5.01 12 4.02 12 3 12 C-0.42857143 4.71428571 -0.42857143 4.71428571 0 0 Z " fill="#1E8FAE" transform="translate(189,184)"/>
<path d="M0 0 C0.66 0.33 1.32 0.66 2 1 C0.71372289 2.17260611 -0.57919783 3.3379283 -1.875 4.5 C-2.59429687 5.1496875 -3.31359375 5.799375 -4.0546875 6.46875 C-6 8 -6 8 -8 8 C-8.2475 8.7425 -8.495 9.485 -8.75 10.25 C-10.09147301 13.20124062 -11.60905526 14.84814974 -14 17 C-14.66 16.67 -15.32 16.34 -16 16 C-13.74844434 11.6219751 -10.79588127 8.99122441 -7 6 C-5.70357554 4.90142345 -4.41188153 3.79723994 -3.125 2.6875 C-2.23167969 1.91986328 -2.23167969 1.91986328 -1.3203125 1.13671875 C-0.88460938 0.76160156 -0.44890625 0.38648437 0 0 Z " fill="#178EB0" transform="translate(366,126)"/>
<path d="M0 0 C0.66 0.33 1.32 0.66 2 1 C-0.4520758 5.75991185 -3.90775833 9.57829431 -8 13 C-8.66 13 -9.32 13 -10 13 C-9.34 11.68 -8.68 10.36 -8 9 C-7.34 9 -6.68 9 -6 9 C-5.7525 8.2575 -5.505 7.515 -5.25 6.75 C-3.90852699 3.79875938 -2.39094474 2.15185026 0 0 Z " fill="#1993B6" transform="translate(82,96)"/>
<path d="M0 0 C4.96219447 2.33515034 8.42599295 6.20034776 11 11 C10.67 11.99 10.34 12.98 10 14 C7 10.25 7 10.25 7 8 C6.401875 7.938125 5.80375 7.87625 5.1875 7.8125 C2.09660471 6.66445318 1.4119656 4.89452948 0 2 C0 1.34 0 0.68 0 0 Z " fill="#206C9D" transform="translate(104,246)"/>
<path d="M0 0 C4.9723422 1.49170266 9.41845739 3.60457417 14 6 C14 6.66 14 7.32 14 8 C14.66 8 15.32 8 16 8 C15.67 8.99 15.34 9.98 15 11 C14.41992188 10.60167969 13.83984375 10.20335937 13.2421875 9.79296875 C8.9360712 6.87248393 4.725837 4.18115554 0 2 C0 1.34 0 0.68 0 0 Z " fill="#26ACCE" transform="translate(85,189)"/>
<path d="M0 0 C0.66 0.99 1.32 1.98 2 3 C1.34 3.66 0.68 4.32 0 5 C-0.99 5 -1.98 5 -3 5 C-3.226875 5.61875 -3.45375 6.2375 -3.6875 6.875 C-5.37929835 9.61410209 -6.99244161 10.05024472 -10 11 C-7.58662205 6.17324411 -4.13937592 3.30015998 0 0 Z " fill="#207B96" transform="translate(379,110)"/>
<path d="M0 0 C3.51839208 0.65155409 6.00227817 2.07289311 9 4 C10.093125 4.680625 11.18625 5.36125 12.3125 6.0625 C13.6428125 7.0215625 13.6428125 7.0215625 15 8 C15 8.66 15 9.32 15 10 C8.68287712 9.02813494 4.22099776 4.46929174 0 0 Z " fill="#188BAE" transform="translate(99,92)"/>
<path d="M0 0 C7.60154046 0.32978484 13.97319219 2.12782571 21 5 C21 5.33 21 5.66 21 6 C15.85693968 6.37632149 12.66879144 5.04771554 8 3 C5.66742506 2.66140041 3.33425788 2.3267961 1 2 C0.67 1.34 0.34 0.68 0 0 Z " fill="#188FB2" transform="translate(312,29)"/>
<path d="M0 0 C0.66 0 1.32 0 2 0 C2.50509208 2.24886238 3.00389179 4.49913869 3.5 6.75 C3.7784375 8.00296875 4.056875 9.2559375 4.34375 10.546875 C5 14 5 14 5 18 C4.34 18 3.68 18 3 18 C2.01 12.06 1.02 6.12 0 0 Z " fill="#2E95CC" transform="translate(18,293)"/>
<path d="M0 0 C4.76264597 0.47887665 7.22641652 2.49488642 10.8125 5.5625 C11.78832031 6.38878906 12.76414062 7.21507812 13.76953125 8.06640625 C14.50558594 8.70449219 15.24164063 9.34257812 16 10 C15.01 10.33 14.02 10.66 13 11 C10.63371501 9.4499802 8.50211922 7.89472474 6.3125 6.125 C5.70599609 5.65191406 5.09949219 5.17882812 4.47460938 4.69140625 C2.95710629 3.49310798 1.47519058 2.25001884 0 1 C0 0.67 0 0.34 0 0 Z " fill="#25ADCE" transform="translate(107,204)"/>
<path d="M0 0 C0.33 0.66 0.66 1.32 1 2 C1.66 2 2.32 2 3 2 C2.67 6.62 2.34 11.24 2 16 C1.34 16 0.68 16 0 16 C0 10.72 0 5.44 0 0 Z " fill="#2A94C5" transform="translate(494,269)"/>
<path d="M0 0 C4.16138263 -0.08159574 7.9472484 0.01751476 12 1 C12 1.66 12 2.32 12 3 C8.33694766 3.74926071 5.57644848 4.2380014 2 3 C2 2.34 2 1.68 2 1 C1.34 0.67 0.68 0.34 0 0 Z " fill="#1E6B8F" transform="translate(34,210)"/>
<path d="M0 0 C0.66 0.99 1.32 1.98 2 3 C-0.97 2.67 -3.94 2.34 -7 2 C-7 2.66 -7 3.32 -7 4 C-8.98 4.99 -10.96 5.98 -13 7 C-9.93270715 0.1575775 -7.35294197 -0.70028019 0 0 Z " fill="#188FB1" transform="translate(97,89)"/>
<path d="M0 0 C2.85311655 3.22526218 3.44902908 5.7758896 4 10 C4.33 10.66 4.66 11.32 5 12 C1.51752126 10.83917375 1.11180756 10.09067524 -0.75 7.0625 C-1.19859375 6.35222656 -1.6471875 5.64195313 -2.109375 4.91015625 C-2.40328125 4.27980469 -2.6971875 3.64945312 -3 3 C-2.67 2.34 -2.34 1.68 -2 1 C-1.34 1.33 -0.68 1.66 0 2 C0 1.34 0 0.68 0 0 Z " fill="#198FAE" transform="translate(442,105)"/>
<path d="M0 0 C5.80054339 1.52450179 9.67635324 2.65326391 13 8 C10.69 7.34 8.38 6.68 6 6 C6 5.34 6 4.68 6 4 C5.195625 3.71125 4.39125 3.4225 3.5625 3.125 C1 2 1 2 0 0 Z " fill="#178AAD" transform="translate(114,102)"/>
<path d="M0 0 C2 1 2 1 2.8515625 3.14453125 C3.10679688 4.02496094 3.36203125 4.90539062 3.625 5.8125 C4.01558594 7.12154297 4.01558594 7.12154297 4.4140625 8.45703125 C5 11 5 11 5 15 C4.34 15 3.68 15 3 15 C2.49363393 13.25183142 1.99515381 11.50137737 1.5 9.75 C1.2215625 8.77546875 0.943125 7.8009375 0.65625 6.796875 C0 4 0 4 0 0 Z " fill="#2B90C9" transform="translate(24,318)"/>
<path d="M0 0 C0.33 0 0.66 0 1 0 C2.20568053 4.67201205 2.09382426 9.21496292 2 14 C1.34 13.67 0.68 13.34 0 13 C-1.17007154 9.02175678 -1.15854031 5.12204815 -1 1 C-0.67 0.67 -0.34 0.34 0 0 Z " fill="#178DAF" transform="translate(202,223)"/>
<path d="M0 0 C0.99 0 1.98 0 3 0 C1.33333333 3.33333333 -0.33333333 6.66666667 -2 10 C-2.66 9.67 -3.32 9.34 -4 9 C-3.47557578 5.2241456 -2.67345333 2.77627845 0 0 Z " fill="#2087A4" transform="translate(337,155)"/>
<path d="M0 0 C0.66 0.33 1.32 0.66 2 1 C0.1875 3 0.1875 3 -2 5 C-2.99 5 -3.98 5 -5 5 C-5.33 5.99 -5.66 6.98 -6 8 C-8.5625 9.1875 -8.5625 9.1875 -11 10 C-9.73459948 6.20379845 -8.21781569 5.51321812 -4.9375 3.3125 C-4.01839844 2.68988281 -3.09929687 2.06726563 -2.15234375 1.42578125 C-1.44207031 0.95527344 -0.73179687 0.48476562 0 0 Z " fill="#1991B3" transform="translate(401,99)"/>
<path d="M0 0 C0.66 0.66 1.32 1.32 2 2 C-0.64 4.64 -3.28 7.28 -6 10 C-6.99 9.67 -7.98 9.34 -9 9 C-6.03 6.03 -3.06 3.06 0 0 Z " fill="#2A8FC7" transform="translate(430,421)"/>
<path d="M0 0 C4.4062186 1.34634457 6.43077702 3.19374374 9 7 C9 7.66 9 8.32 9 9 C7.0625 8.1875 7.0625 8.1875 5 7 C4.67 6.01 4.34 5.02 4 4 C1.99983534 2.79117904 1.99983534 2.79117904 0 2 C0 1.34 0 0.68 0 0 Z " fill="#1889AB" transform="translate(148,128)"/>
<path d="M0 0 C0.61875 0.350625 1.2375 0.70125 1.875 1.0625 C2.57625 1.371875 3.2775 1.68125 4 2 C4.66 1.67 5.32 1.34 6 1 C6.33 1.99 6.66 2.98 7 4 C6.34 4 5.68 4 5 4 C5.99 5.32 6.98 6.64 8 8 C7.67 8.66 7.34 9.32 7 10 C4.13211375 8.94844171 3.17723991 8.36380824 1.8125 5.5625 C1.544375 4.716875 1.27625 3.87125 1 3 C0.67 2.01 0.34 1.02 0 0 Z " fill="#1791B1" transform="translate(447,117)"/>
<path d="M0 0 C4.13639336 1.59092052 7.23213248 4.60474918 10 8 C10 8.66 10 9.32 10 10 C5.86360664 8.40907948 2.76786752 5.39525082 0 2 C0 1.34 0 0.68 0 0 Z " fill="#25819B" transform="translate(424,87)"/>
<path d="M0 0 C0.99 0 1.98 0 3 0 C2.125 5.75 2.125 5.75 1 8 C0.01 8 -0.98 8 -2 8 C-1.125 2.25 -1.125 2.25 0 0 Z " fill="#1F8DAD" transform="translate(33,167)"/>
<path d="M0 0 C2 1.6875 2 1.6875 4 4 C5.65191491 5.35156675 7.31522656 6.68962066 9 8 C3.36996824 6.74888183 -0.59801563 4.77312946 -5 1 C-2.75 0.25 -2.75 0.25 0 0 Z " fill="#16769A" transform="translate(376,49)"/>
<path d="M0 0 C-9.41002278 3.44419134 -9.41002278 3.44419134 -14 3 C-14 2.34 -14 1.68 -14 1 C-12.41913952 0.63495397 -10.83516093 0.28339494 -9.25 -0.0625 C-8.36828125 -0.25972656 -7.4865625 -0.45695313 -6.578125 -0.66015625 C-4.01320972 -0.99825872 -2.42908361 -0.81158635 0 0 Z " fill="#1473A7" transform="translate(471,216)"/>
<path d="M0 0 C2.52259061 1.97420135 2.9929808 2.96745642 3.6875 6.1875 C3.790625 7.115625 3.89375 8.04375 4 9 C3.01 9.495 3.01 9.495 2 10 C-0.4294516 6.3558226 -0.16179575 4.28758728 0 0 Z " fill="#248DAC" transform="translate(185,174)"/>
<path d="M0 0 C2.9375 1.1875 2.9375 1.1875 6 3 C6.875 5.6875 6.875 5.6875 7 8 C6.01 8 5.02 8 4 8 C3.67 7.01 3.34 6.02 3 5 C2.01 4.34 1.02 3.68 0 3 C0 2.01 0 1.02 0 0 Z " fill="#198FAE" transform="translate(178,166)"/>
<path d="M0 0 C0 3.63327194 -0.95586411 5.04735927 -3 8 C-3.99 8.66 -4.98 9.32 -6 10 C-5.6875 8.0625 -5.6875 8.0625 -5 6 C-4.01 5.67 -3.02 5.34 -2 5 C-1.33820153 3.01954441 -1.33820153 3.01954441 -1 1 C-0.67 0.67 -0.34 0.34 0 0 Z M-8 10 C-7.34 10.33 -6.68 10.66 -6 11 C-6.99 11.66 -7.98 12.32 -9 13 C-8.67 12.01 -8.34 11.02 -8 10 Z " fill="#177EBA" transform="translate(409,248)"/>
<path d="M0 0 C8.57142857 0.85714286 8.57142857 0.85714286 12 3 C12 3.66 12 4.32 12 5 C7.545 4.01 7.545 4.01 3 3 C3 2.34 3 1.68 3 1 C2.01 0.67 1.02 0.34 0 0 Z " fill="#256C93" transform="translate(63,218)"/>
<path d="M0 0 C0.33 0.99 0.66 1.98 1 3 C-0.36328125 5.04296875 -0.36328125 5.04296875 -2.3125 7.1875 C-2.94800781 7.90292969 -3.58351563 8.61835937 -4.23828125 9.35546875 C-6 11 -6 11 -8 11 C-6.63629701 8.00779732 -5.05091917 5.70973471 -2.875 3.25 C-2.33617188 2.63640625 -1.79734375 2.0228125 -1.2421875 1.390625 C-0.62730469 0.70226562 -0.62730469 0.70226562 0 0 Z " fill="#2691A8" transform="translate(76,98)"/>
<path d="M0 0 C0.66 0 1.32 0 2 0 C3.4606285 2.64738916 4 3.89448334 4 7 C3.01 7.33 2.02 7.66 1 8 C0 7 0 7 -0.0625 3.4375 C-0.041875 2.303125 -0.02125 1.16875 0 0 Z " fill="#168DAA" transform="translate(478,168)"/>
<path d="M0 0 C0.66 0.33 1.32 0.66 2 1 C-1.87564767 4.61139896 -1.87564767 4.61139896 -4 6 C-6.375 5.8125 -6.375 5.8125 -8 5 C-7.67 3.68 -7.34 2.36 -7 1 C-6.34 1 -5.68 1 -5 1 C-4.67 1.66 -4.34 2.32 -4 3 C-2.68 2.01 -1.36 1.02 0 0 Z " fill="#1B8EA7" transform="translate(127,58)"/>
<path d="M0 0 C2.97 0.99 5.94 1.98 9 3 C9 3.33 9 3.66 9 4 C7.72125 4.061875 6.4425 4.12375 5.125 4.1875 C4.40570313 4.22230469 3.68640625 4.25710937 2.9453125 4.29296875 C2.30335938 4.19628906 1.66140625 4.09960938 1 4 C0.34 3.01 -0.32 2.02 -1 1 C-0.67 0.67 -0.34 0.34 0 0 Z " fill="#1A7295" transform="translate(348,36)"/>
<path d="M0 0 C0.66 1.32 1.32 2.64 2 4 C0.35 6.31 -1.3 8.62 -3 11 C-3.99 10.67 -4.98 10.34 -6 10 C-5.195625 9.0925 -4.39125 8.185 -3.5625 7.25 C-1.58857329 4.89690092 -0.36122533 3.13061954 0 0 Z " fill="#229ECF" transform="translate(453,391)"/>
<path d="M0 0 C2.83022097 3.99560608 1.76210446 7.42737323 1 12 C-1.83022097 8.00439392 -0.76210446 4.57262677 0 0 Z " fill="#2E98C1" transform="translate(376,311)"/>
<path d="M0 0 C0.66 0.66 1.32 1.32 2 2 C1.7578125 3.9453125 1.7578125 3.9453125 1.125 6.125 C0.92132813 6.84945313 0.71765625 7.57390625 0.5078125 8.3203125 C0.34023438 8.87460937 0.17265625 9.42890625 0 10 C-0.66 10 -1.32 10 -2 10 C-2.25 3.375 -2.25 3.375 0 0 Z " fill="#27ACCB" transform="translate(346,287)"/>
<path d="M0 0 C-3.18762365 2.12508244 -5.26512223 2.5020163 -9 3 C-9 3.66 -9 4.32 -9 5 C-10.65 4.67 -12.3 4.34 -14 4 C-9.49667324 0.99778216 -5.42232421 -0.31896025 0 0 Z " fill="#167EB9" transform="translate(461,219)"/>
<path d="M0 0 C3.21043882 1.38188453 5.04936365 2.92421903 7.25 5.625 C8.03117188 6.57246094 8.03117188 6.57246094 8.828125 7.5390625 C9.40820312 8.26222656 9.40820312 8.26222656 10 9 C4.26623343 6.73667109 2.67872978 5.72274089 0 0 Z " fill="#198EB2" transform="translate(127,110)"/>
<path d="M0 0 C0.66 0.33 1.32 0.66 2 1 C-3.14285714 7.57142857 -3.14285714 7.57142857 -7 9 C-6.34 7.68 -5.68 6.36 -5 5 C-4.34 5 -3.68 5 -3 5 C-2.690625 4.360625 -2.38125 3.72125 -2.0625 3.0625 C-1 1 -1 1 0 0 Z " fill="#177AB2" transform="translate(417,239)"/>
<path d="M0 0 C4.60853797 0.72008406 8.67237409 2.31295939 13 4 C9.02634963 5.20153575 6.84785711 4.637386 3 3 C1.125 1.375 1.125 1.375 0 0 Z " fill="#1372A6" transform="translate(56,218)"/>
<path d="M0 0 C-8.261959 4.59225513 -8.261959 4.59225513 -13 4 C-8.74310869 0.5314219 -5.44072603 -1.61377467 0 0 Z " fill="#1688A7" transform="translate(183,34)"/>
<path d="M0 0 C1.32 0.33 2.64 0.66 4 1 C0.535 3.97 0.535 3.97 -3 7 C-3 3.48283697 -2.17554415 2.62878252 0 0 Z " fill="#1A99CD" transform="translate(419,431)"/>
<path d="M0 0 C-0.25 2.375 -0.25 2.375 -1 5 C-3.0625 6.3125 -3.0625 6.3125 -5 7 C-4.67 6.01 -4.34 5.02 -4 4 C-4.33 3.34 -4.66 2.68 -5 2 C-2 0 -2 0 0 0 Z " fill="#1D72A6" transform="translate(396,99)"/>
<path d="M0 0 C2.15377564 2.62198774 3.40072174 4.64404172 4 8 C3.01 8 2.02 8 1 8 C-0.35439668 5.29120665 -0.06501451 2.99066732 0 0 Z " fill="#1771A0" transform="translate(122,269)"/>
<path d="M0 0 C0.66 0.66 1.32 1.32 2 2 C-4.625 5.125 -4.625 5.125 -8 4 C-5.36 2.68 -2.72 1.36 0 0 Z " fill="#287192" transform="translate(447,217)"/>
<path d="M0 0 C2.64 0.33 5.28 0.66 8 1 C8 1.66 8 2.32 8 3 C4.25 4.125 4.25 4.125 2 3 C2 2.34 2 1.68 2 1 C1.34 0.67 0.68 0.34 0 0 Z " fill="#217C91" transform="translate(330,30)"/>
<path d="M0 0 C1.31602523 0.61754259 2.62773556 1.24428742 3.9375 1.875 C4.66839844 2.22304688 5.39929688 2.57109375 6.15234375 2.9296875 C8 4 8 4 9 6 C5.21213403 5.4739075 2.82847776 4.61896089 0 2 C0 1.34 0 0.68 0 0 Z " fill="#2E94C8" transform="translate(119,454)"/>
<path d="M0 0 C0.66 0.33 1.32 0.66 2 1 C-0.64 2.98 -3.28 4.96 -6 7 C-6 6.01 -6 5.02 -6 4 C-3 1.8125 -3 1.8125 0 0 Z " fill="#2496CA" transform="translate(402,447)"/>
<path d="M0 0 C0 3.38023517 -0.87455622 5.83468937 -2 9 C-2.33 7.68 -2.66 6.36 -3 5 C-3.66 5 -4.32 5 -5 5 C-4.67 4.01 -4.34 3.02 -4 2 C-3.34 2 -2.68 2 -2 2 C-1.34 1.34 -0.68 0.68 0 0 Z " fill="#1A9ABB" transform="translate(39,162)"/>
<path d="M0 0 C0.66 0 1.32 0 2 0 C1.34 1.98 0.68 3.96 0 6 C-0.99 6 -1.98 6 -3 6 C-1.125 1.125 -1.125 1.125 0 0 Z " fill="#1F829D" transform="translate(344,145)"/>
<path d="M0 0 C1.8125 0.1875 1.8125 0.1875 4 1 C5.75 3.5625 5.75 3.5625 7 6 C5.68 5.67 4.36 5.34 3 5 C3 4.34 3 3.68 3 3 C2.34 3 1.68 3 1 3 C0.67 2.01 0.34 1.02 0 0 Z " fill="#1990B1" transform="translate(137,119)"/>
<path d="M0 0 C0.66 0 1.32 0 2 0 C3.6875 1.8125 3.6875 1.8125 5 4 C4.67 4.99 4.34 5.98 4 7 C2 5.75 2 5.75 0 4 C0 2.68 0 1.36 0 0 Z " fill="#24849E" transform="translate(444,109)"/>
<path d="M0 0 C0 1.32 0 2.64 0 4 C-2.31 4 -4.62 4 -7 4 C-7 3.34 -7 2.68 -7 2 C-2.25 0 -2.25 0 0 0 Z " fill="#227B92" transform="translate(172,33)"/>
<path d="M0 0 C3.35595828 0.59927826 5.37801226 1.84622436 8 4 C7.67 4.99 7.34 5.98 7 7 C5.83040013 6.02433888 4.66438823 5.044375 3.5 4.0625 C2.8503125 3.51722656 2.200625 2.97195313 1.53125 2.41015625 C1.0259375 1.94480469 0.520625 1.47945313 0 1 C0 0.67 0 0.34 0 0 Z " fill="#1FA0CC" transform="translate(98,439)"/>
<path d="M0 0 C0.6875 1.6875 0.6875 1.6875 1 4 C-0.3125 6.75 -0.3125 6.75 -2 9 C-2.66 9 -3.32 9 -4 9 C-2.80100302 5.9168649 -1.52299523 2.93720508 0 0 Z " fill="#2E8FC6" transform="translate(471,362)"/>
<path d="M0 0 C0.66 0 1.32 0 2 0 C2.33 2.64 2.66 5.28 3 8 C2.34 8 1.68 8 1 8 C0.67 5.36 0.34 2.72 0 0 Z " fill="#1999BF" transform="translate(168,299)"/>
<path d="M0 0 C0.66 0 1.32 0 2 0 C1.67 1.98 1.34 3.96 1 6 C0.01 6.33 -0.98 6.66 -2 7 C-1.125 2.25 -1.125 2.25 0 0 Z " fill="#1E72A0" transform="translate(391,267)"/>
<path d="M0 0 C1.65 0 3.3 0 5 0 C3.02 2.97 3.02 2.97 1 6 C0.34 5.67 -0.32 5.34 -1 5 C-0.67 3.35 -0.34 1.7 0 0 Z " fill="#1776A0" transform="translate(380,109)"/>
</svg>
